<svg width="33" height="42" viewBox="0 0 33 42" fill="none" xmlns="http://www.w3.org/2000/svg">
<path d="M31.5098 19.0262C30.6023 16.9945 29.2832 15.1711 27.6348 13.6698L26.2745 12.4284C26.2283 12.3874 26.1728 12.3583 26.1126 12.3436C26.0525 12.329 25.9897 12.3293 25.9297 12.3444C25.8697 12.3596 25.8144 12.3891 25.7685 12.4305C25.7227 12.4719 25.6878 12.5239 25.6669 12.5818L25.0592 14.3161C24.6806 15.4041 23.9841 16.5154 22.9978 17.608C22.9324 17.6778 22.8576 17.6964 22.8062 17.701C22.7547 17.7057 22.6753 17.6964 22.6052 17.6313C22.5397 17.5755 22.507 17.4918 22.5117 17.4081C22.6846 14.609 21.8432 11.452 20.0015 8.01589C18.4777 5.16103 16.3602 2.93387 13.7145 1.3809L11.784 0.251042C11.5316 0.102254 11.2091 0.297538 11.2231 0.590463L11.326 2.82228C11.3961 4.34735 11.2184 5.69573 10.7978 6.81629C10.2836 8.18792 9.54502 9.46192 8.60081 10.6057C7.9437 11.4006 7.19893 12.1196 6.38049 12.7492C4.40934 14.2564 2.80654 16.1877 1.69211 18.3985C0.580432 20.6285 0.00135631 23.0837 0 25.5728C0 27.7674 0.434714 29.8923 1.2948 31.8963C2.12527 33.8257 3.32374 35.5768 4.82393 37.0527C6.33842 38.5406 8.09598 39.7123 10.0545 40.526C12.0832 41.3722 14.2334 41.7999 16.4537 41.7999C18.674 41.7999 20.8242 41.3722 22.8529 40.5306C24.8066 39.7217 26.5832 38.542 28.0835 37.0573C29.598 35.5695 30.7853 33.8305 31.6126 31.9009C32.4714 29.9024 32.912 27.7509 32.9074 25.5775C32.9074 23.3085 32.44 21.1045 31.5098 19.0262ZM25.8492 34.8023C23.339 37.2759 20.0062 38.6336 16.4537 38.6336C12.9012 38.6336 9.5684 37.2759 7.05827 34.8023C4.55749 32.3333 3.17856 29.06 3.17856 25.5775C3.17856 23.5549 3.63665 21.616 4.53879 19.8119C5.41757 18.0497 6.72639 16.4735 8.31567 15.26C9.32925 14.489 10.2486 13.6027 11.0548 12.619C12.2234 11.2009 13.1396 9.62 13.7753 7.9229C14.0361 7.22284 14.2256 6.49852 14.3409 5.76083C15.4674 6.79304 16.4116 8.03914 17.2016 9.49911C18.7628 12.4098 19.4827 14.9996 19.3425 17.2035C19.309 17.7226 19.3942 18.2424 19.5917 18.724C19.7893 19.2056 20.094 19.6364 20.483 19.984C20.8201 20.2869 21.2144 20.5201 21.6429 20.6702C22.0714 20.8203 22.5256 20.8841 22.9791 20.8581C23.9 20.8116 24.746 20.4071 25.363 19.7236C25.9847 19.0308 26.5223 18.3241 26.971 17.6034C27.6254 18.4357 28.1723 19.3423 28.607 20.3188C29.3502 21.9833 29.7289 23.7548 29.7289 25.5775C29.7289 29.06 28.3499 32.338 25.8492 34.8023Z" fill="white"/>
</svg>
