<svg width="80" height="80" viewBox="0 0 80 80" fill="none" xmlns="http://www.w3.org/2000/svg">
<circle cx="40" cy="40" r="39" fill="#C49F3C" stroke="#FFFAEC" stroke-width="2"/>
<path d="M34.0962 26.9814C34.591 26.9814 34.9772 27.3556 34.9772 27.8504C34.9832 28.3391 34.5971 28.7374 34.1143 28.7434C33.6256 28.7494 33.1972 28.3331 33.2032 27.8504C33.2092 27.3737 33.6135 26.9814 34.0962 26.9814Z" fill="#FFFAEC"/>
<path d="M31.4957 64C31.3388 64 31.188 63.9578 31.0552 63.8733C21.9317 58.2918 18.8423 52.7284 20.375 44.6669C20.8939 41.9455 21.7749 38.5845 22.7343 35.6761C23.4946 33.3711 24.629 30.3541 25.7091 29.093C26.222 28.4896 26.7349 28.5439 27.0004 28.6283C27.9236 28.93 28.0141 30.1429 28.1951 32.5625C28.2675 33.5159 28.352 34.6021 28.4968 35.5494C29.6553 33.9262 30.6811 32.3453 31.5561 30.8308C31.7914 30.4265 32.3043 30.2877 32.7086 30.523C33.1129 30.7584 33.2516 31.2713 33.0163 31.6755C31.8517 33.6909 30.4337 35.8209 28.7985 37.9992C28.6175 38.2406 28.3218 38.3673 28.0201 38.3311C27.7184 38.2949 27.465 38.0958 27.3443 37.8182C26.8012 36.5209 26.6443 34.4874 26.5116 32.6893C26.4754 32.2005 26.4332 31.6333 26.3788 31.1325C24.8764 33.9021 22.9093 40.4008 22.0404 44.9746C20.7672 51.6664 22.9575 56.3186 29.8062 61.0373C29.1243 58.8529 28.9192 56.8496 29.1787 54.9549C29.5166 52.487 30.6268 50.4716 31.6647 48.8183C33.137 46.4831 33.5714 44.7996 33.9154 43.442C34.1326 42.5851 34.3257 41.8429 34.7179 41.1369C35.1403 40.3827 35.7618 40.2801 36.2023 40.437C36.4678 40.5335 37.2824 40.8232 37.6082 43.5506C37.6505 43.9247 37.6987 44.4617 37.7168 45.1134C38.8271 42.7118 39.334 40.0206 39.4305 37.9329C39.4667 37.1364 39.9555 36.4606 40.7037 36.177C41.458 35.8934 42.3088 36.0864 42.8699 36.6657C45.7059 39.6164 47.8239 43.6471 48.8316 48.0218C49.8574 52.4629 49.7186 56.9281 48.4333 60.9468C56.9233 54.8343 57.7801 46.7064 56.9896 40.9378C56.3078 36.0623 54.3769 31.9833 53.2787 29.986C52.3434 28.2784 51.5167 27.144 50.9978 26.4923C50.6961 26.1182 50.4427 25.8466 50.2375 25.6415C50.2496 26.2509 50.3099 26.9147 50.3823 27.5965C50.5996 29.7627 50.8409 32.2126 49.1695 33.8297C48.9523 34.0409 48.6385 34.1193 48.3489 34.0349C48.0592 33.9504 47.836 33.7151 47.7636 33.4254C45.4465 23.8856 40.8063 19.5411 38.2539 17.7972C38.0004 17.6222 37.747 17.7308 37.6746 17.767C37.572 17.8213 37.397 17.9481 37.397 18.1955C37.3669 20.1807 36.9928 22.3107 36.2747 24.5252C36.1299 24.9717 35.6532 25.2131 35.2127 25.0682C34.7662 24.9234 34.5248 24.4467 34.6696 24.0063C35.3334 21.9486 35.6834 19.9876 35.7075 18.1653C35.7196 17.3507 36.1661 16.6387 36.8962 16.2585C37.6384 15.8723 38.5254 15.9206 39.2073 16.3913C40.5589 17.3145 42.5803 18.992 44.5233 21.7556C46.3214 24.308 47.7575 27.3431 48.8014 30.8006C48.9161 29.9015 48.8074 28.8456 48.7049 27.7594C48.5963 26.6854 48.4876 25.5751 48.6023 24.5674C48.6807 23.8494 49.1574 23.5356 49.5798 23.4813C49.8936 23.4391 50.853 23.3123 53.0132 26.3475C54.3889 28.2844 55.6983 30.7463 56.694 33.2927C58.0637 36.8045 59.5179 42.1808 58.649 47.8649C57.7439 53.7783 54.5639 58.6961 49.1936 62.4855C48.6264 62.8837 47.9023 62.8777 47.3412 62.4673C46.7679 62.045 46.5326 61.2967 46.7559 60.6149C49.2781 52.9637 47.1722 43.6049 41.639 37.8424C41.5062 37.7036 41.3493 37.7398 41.289 37.7639C41.2106 37.7941 41.114 37.8605 41.108 38.0113C41.0295 39.7974 40.6856 41.7464 40.1365 43.5023C39.4486 45.6927 38.4832 47.5572 37.2522 49.0416C37.0048 49.3372 36.5945 49.4338 36.2445 49.2709C35.8946 49.1079 35.7015 48.7338 35.7678 48.3537C36.0152 46.984 36.0877 45.4754 35.9609 44.1117C35.9187 43.6351 35.8584 43.2428 35.792 42.9351C35.7075 43.2187 35.6291 43.5264 35.5446 43.8643C35.1886 45.2522 34.6998 47.1589 33.0887 49.7174C31.0432 52.9637 29.4441 56.4031 32.2741 62.7872C32.3767 63.0104 32.3707 63.2699 32.2621 63.4931V63.4992C32.1595 63.7164 31.9664 63.8793 31.7371 63.9457C31.6526 63.9879 31.5742 64 31.4957 64Z" fill="#FFFAEC"/>
</svg>
