<svg width="50" height="50" viewBox="0 0 50 50" fill="none" xmlns="http://www.w3.org/2000/svg">
<circle cx="25" cy="25" r="24" fill="#C49F3C" stroke="#FFFAEC" stroke-width="2"/>
<path d="M20.727 17.4062L20.727 17.4062C20.723 17.7225 21.0028 17.9936 21.3218 17.9896C21.6375 17.9857 21.8897 17.7252 21.8858 17.4062L21.8608 17.4065H21.8858C21.8858 17.083 21.6327 16.8384 21.3101 16.8384C20.9951 16.8384 20.7309 17.0942 20.727 17.4062Z" fill="#FFFAEC" stroke="#FFFAEC" stroke-width="0.05"/>
<path d="M36.6556 29.9156C36.0899 33.6114 34.1025 36.685 30.746 39.0534C30.3915 39.3023 29.939 39.2985 29.5882 39.0421C29.23 38.7781 29.0829 38.3105 29.2224 37.8843C30.7988 33.1023 29.4826 27.253 26.0244 23.6515C25.9414 23.5647 25.8433 23.5874 25.8056 23.6024C25.7566 23.6213 25.6963 23.6628 25.6925 23.7571C25.6435 24.8734 25.4285 26.0915 25.0853 27.1889C24.6554 28.5579 24.052 29.7232 23.2826 30.651C23.128 30.8358 22.8716 30.8961 22.6528 30.7943C22.4341 30.6925 22.3134 30.4586 22.3549 30.2211C22.5095 29.365 22.5548 28.4221 22.4756 27.5698C22.4515 27.298 22.418 27.0702 22.3808 26.8863C22.3757 26.9037 22.3707 26.9213 22.3657 26.939M36.6556 29.9156L36.6803 29.9194C36.1135 33.6226 34.1218 36.702 30.7604 39.0738L30.7604 39.0739C30.3971 39.3289 29.9329 39.325 29.5735 39.0623L29.5734 39.0622C29.2063 38.7917 29.0558 38.3128 29.1987 37.8765L29.1987 37.8765C30.7722 33.1032 29.4581 27.2636 26.0063 23.6688L26.0063 23.6688C25.9336 23.5928 25.8485 23.6122 25.8149 23.6257L25.8146 23.6258C25.7924 23.6343 25.769 23.6475 25.7508 23.668C25.733 23.6882 25.7191 23.7166 25.7175 23.7581L25.7175 23.7582C25.6683 24.8767 25.453 26.0969 25.1092 27.1964L25.1092 27.1964C24.6785 28.5679 24.0737 29.7362 23.3019 30.6669L23.3018 30.667C23.1401 30.8603 22.8715 30.9237 22.6423 30.817C22.4132 30.7103 22.2869 30.4654 22.3303 30.2168L22.3303 30.2166C22.4845 29.3627 22.5297 28.4221 22.4507 27.5722L22.4507 27.572C22.4287 27.3242 22.3989 27.1132 22.3657 26.939M36.6556 29.9156C37.1987 26.363 36.2898 23.0028 35.4337 20.8079M36.6556 29.9156L36.6803 29.9194C37.2243 26.3607 36.3139 22.9957 35.457 20.7988L35.457 20.7988C34.8341 19.2057 34.0148 17.6651 33.1536 16.4527L33.1536 16.4527C32.4777 15.5031 31.988 15.0456 31.6408 14.829C31.4669 14.7206 31.3284 14.6723 31.2199 14.6532L35.4337 20.8079M22.3657 26.939C22.3622 26.9207 22.3587 26.9027 22.3551 26.8852C22.3079 27.0483 22.2632 27.224 22.2154 27.4152L22.2151 27.4162C21.9926 28.2835 21.687 29.4749 20.6805 31.0734M22.3657 26.939C22.3235 27.0883 22.2829 27.2483 22.2396 27.4213L22.2396 27.4214L22.2393 27.4224C22.0166 28.2906 21.7102 29.485 20.7016 31.0867L20.6805 31.0734M20.6805 31.0734L20.7016 31.0867C20.0628 32.1005 19.4957 33.1415 19.3079 34.4259C19.1202 35.7099 19.3112 37.24 20.1941 39.2317C20.2606 39.3765 20.2574 39.5441 20.1888 39.6889V39.6988L20.1864 39.6977C20.1195 39.8393 19.994 39.9456 19.8448 39.9894C19.7885 40.0171 19.7361 40.025 19.6848 40.025C19.5823 40.025 19.4834 39.9974 19.3963 39.942C16.5436 38.1968 14.6313 36.4527 13.5526 34.5122C12.4734 32.5709 12.23 30.4358 12.7098 27.9121L12.7343 27.9168L20.6805 31.0734ZM35.4337 20.8079C34.8115 19.2164 33.9931 17.6778 33.1332 16.4672M35.4337 20.8079L33.1332 16.4672M30.4157 17.3522C30.3478 16.6815 30.2796 15.9848 30.3516 15.3519C30.402 14.8905 30.7099 14.6863 30.9841 14.651L21.6448 14.9961M30.4157 17.3522C30.4157 17.3521 30.4157 17.3521 30.4157 17.352L30.4405 17.3496L30.4157 17.3522ZM30.4157 17.3522C30.4182 17.3795 30.4208 17.4067 30.4234 17.4339C30.4805 18.0363 30.5356 18.618 30.4892 19.1264M30.4892 19.1264C29.8392 17.0116 28.9528 15.1518 27.8475 13.5828M30.4892 19.1264C30.4873 19.148 30.4851 19.1694 30.4828 19.1907C29.8319 17.0545 28.9405 15.1778 27.827 13.5972M30.4892 19.1264C30.4956 19.147 30.5019 19.1677 30.5082 19.1883L24.5045 10.2445M27.8475 13.5828C26.6312 11.8528 25.3655 10.8024 24.5187 10.2239M27.8475 13.5828C27.8475 13.5828 27.8475 13.5828 27.8475 13.5828L27.827 13.5972M27.8475 13.5828L27.827 13.5972M24.5187 10.2239C24.0847 9.92442 23.5205 9.89388 23.0486 10.1394L23.0601 10.1616M24.5187 10.2239C24.5187 10.2239 24.5186 10.2239 24.5186 10.2239L24.5045 10.2445M24.5187 10.2239C24.5187 10.2239 24.5187 10.224 24.5187 10.224L24.5045 10.2445M23.0601 10.1616L23.0486 10.1394C22.5843 10.3811 22.2999 10.8344 22.2922 11.3529V11.353C22.2771 12.4889 22.059 13.7121 21.6448 14.9961M23.0601 10.1616C23.524 9.92021 24.0784 9.95038 24.5045 10.2445M23.0601 10.1616C22.6038 10.3992 22.3247 10.8442 22.3172 11.3533C22.3021 12.4922 22.0834 13.7179 21.6685 15.0039M21.6448 14.9961L21.6685 15.0039M21.6448 14.9961L24.5045 10.2445M24.5045 10.2445C25.3493 10.8216 26.6127 11.87 27.827 13.5972M21.6685 15.0039C21.578 15.2792 21.7289 15.5771 22.0079 15.6677M21.6685 15.0039L21.6447 14.9962C21.6447 14.9962 21.6448 14.9962 21.6448 14.9962C21.55 15.2847 21.7081 15.5966 22.0001 15.6914M22.0079 15.6677L22.0001 15.6914C22.0001 15.6914 22.0001 15.6914 22.0001 15.6914M22.0079 15.6677C22.2832 15.7582 22.5812 15.6073 22.6717 15.3282C23.1205 13.9442 23.3543 12.6129 23.3731 11.3722L18.0191 23.7645M22.0079 15.6677L22.0002 15.6914C22.0002 15.6914 22.0002 15.6914 22.0001 15.6914M22.0001 15.6914C22.2887 15.7863 22.6007 15.6281 22.6955 15.336C23.1449 13.9499 23.3792 12.6161 23.3981 11.3725V11.3722C23.3981 11.2319 23.4967 11.1592 23.5581 11.1266M23.5581 11.1266C23.6019 11.1048 23.7483 11.0429 23.8945 11.1438L23.8946 11.1439C25.4851 12.2305 28.3813 14.9408 29.8279 20.8968L29.828 20.897C29.8754 21.0865 30.0214 21.2405 30.211 21.2958C30.4007 21.3511 30.6062 21.2997 30.7484 21.1615M23.5581 11.1266C23.5581 11.1266 23.5582 11.1265 23.5583 11.1265L23.5466 11.1044M23.5581 11.1266C23.558 11.1267 23.5579 11.1267 23.5578 11.1268L23.5466 11.1044M30.7484 21.1615C31.2761 20.6509 31.5011 20.0092 31.5774 19.3272C31.6537 18.6457 31.5817 17.9218 31.5138 17.2453L31.5138 17.2452C31.4711 16.8425 31.4351 16.4507 31.4249 16.0882M30.7484 21.1615C30.7483 21.1615 30.7483 21.1615 30.7483 21.1615L30.7309 21.1436M30.7484 21.1615L30.7309 21.1436M31.4249 16.0882C31.5443 16.2101 31.6873 16.3665 31.8542 16.5734M31.4249 16.0882C31.4163 16.0794 31.4077 16.0707 31.3993 16.0622C31.4084 16.4331 31.4451 16.8351 31.489 17.2478C31.6247 18.6017 31.7756 20.1329 30.7309 21.1436M31.4249 16.0882C31.4246 16.076 31.4243 16.0638 31.424 16.0516C31.5475 16.1766 31.6974 16.3392 31.8736 16.5577M31.8542 16.5734C32.1777 16.9797 32.6935 17.6875 33.2773 18.7533L33.2773 18.7533C33.9629 20.0002 35.1682 22.5465 35.5938 25.5896M31.8542 16.5734C31.8541 16.5733 31.8541 16.5733 31.8541 16.5733L31.8736 16.5577M31.8542 16.5734L31.8736 16.5577M35.5938 25.5896C35.5938 25.5896 35.5938 25.5896 35.5938 25.5896L35.6185 25.5861L35.5937 25.5895C35.5937 25.5895 35.5938 25.5896 35.5938 25.5896ZM35.5938 25.5896C36.0851 29.1752 35.5566 34.2191 30.3175 38.0271C31.101 35.5296 31.18 32.7611 30.5441 30.008C30.5441 30.008 30.5441 30.008 30.5441 30.008L30.5197 30.0136M30.5197 30.0136C29.8899 27.2794 28.5662 24.7602 26.7937 22.9161C26.443 22.554 25.9112 22.4333 25.4398 22.6106C24.9722 22.7878 24.6667 23.2102 24.6441 23.708M30.5197 30.0136C31.1575 32.7746 31.075 35.5504 30.2836 38.0517L30.5197 30.0136ZM24.6441 23.708L24.6191 23.7069C24.6191 23.7069 24.6191 23.7069 24.6191 23.7069C24.5602 24.9811 24.2562 26.6157 23.5946 28.0883C23.5814 27.7282 23.5541 27.4299 23.53 27.2163L23.53 27.2161C23.4279 26.3619 23.249 25.8862 23.0726 25.6158C22.9842 25.4804 22.8965 25.3965 22.8195 25.3425C22.7432 25.289 22.6783 25.2654 22.6364 25.2501L22.635 25.2496L22.6348 25.2496C22.4921 25.1987 22.32 25.1899 22.1494 25.2549C21.9786 25.32 21.8113 25.4584 21.6769 25.6984L21.6768 25.6985C21.4299 26.143 21.3085 26.61 21.1729 27.1451C20.9582 27.9926 20.6874 29.0419 19.7693 30.4981L19.7693 30.4981C19.1201 31.5323 18.4238 32.7956 18.2119 34.3434C18.0519 35.5119 18.1737 36.7454 18.5837 38.0867C16.4786 36.6273 15.089 35.1783 14.321 33.5803C13.5461 31.9679 13.4026 30.2011 13.7998 28.1138L13.7752 28.1091L13.7998 28.1138C14.3353 25.2949 15.5383 21.3073 16.4704 19.5413C16.5003 19.8331 16.5241 20.1532 16.5448 20.4326C16.5863 20.9944 16.6316 21.5939 16.709 22.1544C16.7864 22.7146 16.8962 23.2376 17.0671 23.646L17.0673 23.6464C17.146 23.8275 17.3117 23.958 17.5096 23.9818C17.707 24.0055 17.9006 23.9225 18.0191 23.7645M24.6441 23.708C24.5844 24.9981 24.2741 26.6568 23.5965 28.1447L24.6441 23.708ZM18.0191 23.7645C18.0191 23.7645 18.0191 23.7645 18.0191 23.7645L17.9991 23.7495L18.0191 23.7645ZM18.0191 23.7645C19.0416 22.4024 19.9284 21.0704 20.6568 19.8098C20.8109 19.545 20.7199 19.2092 20.4554 19.0553C20.1907 18.9012 19.8549 18.9922 19.7009 19.2567L19.7009 19.2567C19.1636 20.1869 18.535 21.1572 17.826 22.1535M18.0191 23.7645L17.826 22.1535M17.826 22.1535C17.7413 21.5772 17.6906 20.9253 17.6469 20.3497C17.6469 20.3497 17.6469 20.3497 17.6469 20.3497L17.826 22.1535ZM23.9087 11.1233C25.5039 12.2132 28.404 14.9285 29.8522 20.8909C29.8975 21.0719 30.037 21.219 30.218 21.2718C30.3991 21.3246 30.5952 21.2756 30.7309 21.1436M23.9087 11.1233L33.2992 18.7413C32.7146 17.674 32.198 16.965 31.8736 16.5577M23.9087 11.1233C23.7503 11.0139 23.5919 11.0818 23.5466 11.1044M23.9087 11.1233L23.5466 11.1044M33.1332 16.4672C31.7831 14.5702 31.1835 14.6494 30.9874 14.6758L30.9842 14.651L33.1332 16.4672Z" fill="#FFFAEC" stroke="#FFFAEC" stroke-width="0.05"/>
</svg>
