<svg width="17" height="26" viewBox="0 0 17 26" fill="none" xmlns="http://www.w3.org/2000/svg">
<path d="M15.7573 23.6937C15.9285 23.6934 16.0936 23.7669 16.2201 23.8999C16.3466 24.0329 16.4253 24.2157 16.4408 24.4122C16.4562 24.6088 16.4073 24.8049 16.3036 24.962C16.2 25.119 16.049 25.2256 15.8806 25.2608L15.7573 25.2734H0.686306C0.515119 25.2738 0.350018 25.2003 0.223513 25.0673C0.0970093 24.9343 0.0182711 24.7515 0.00280353 24.555C-0.012664 24.3584 0.0362601 24.1623 0.139942 24.0052C0.243624 23.8482 0.39455 23.7415 0.562998 23.7064L0.686306 23.6937H15.7573ZM8.22179 4.39316e-08C8.38213 -6.15859e-05 8.5374 0.0647221 8.66057 0.183069C8.78375 0.301416 8.86701 0.465828 8.89587 0.647672L8.90683 0.789844L8.90135 19.4207L13.8953 13.658C14.0085 13.5269 14.158 13.4458 14.3177 13.4287C14.4775 13.4117 14.6373 13.4599 14.7694 13.5648L14.8653 13.6564C14.9788 13.7871 15.0489 13.9596 15.0635 14.1437C15.078 14.3279 15.036 14.5121 14.9448 14.6642L14.8653 14.7748L8.71091 21.8834C8.61548 21.9934 8.49388 22.0681 8.36154 22.0983L8.21631 22.1141C8.11181 22.114 8.00871 22.0863 7.9149 22.0332C7.8211 21.98 7.73908 21.9029 7.67513 21.8076L1.56864 14.7748C1.4468 14.6358 1.37461 14.4491 1.36631 14.2517C1.35802 14.0543 1.41423 13.8604 1.52384 13.7084C1.63345 13.5565 1.7885 13.4574 1.95837 13.4308C2.12825 13.4042 2.3006 13.452 2.44139 13.5648L2.5373 13.6564L7.53127 19.4081L7.53675 0.791424C7.53657 0.687567 7.55415 0.584689 7.5885 0.488679C7.62285 0.392668 7.67328 0.30541 7.73691 0.231898C7.80054 0.158387 7.87612 0.100066 7.95932 0.0602743C8.04252 0.0204822 8.13171 -1.63782e-07 8.22179 4.39316e-08Z" fill="#0AA9BE"/>
</svg>
