<svg width="246" height="69" viewBox="0 0 246 69" fill="none" xmlns="http://www.w3.org/2000/svg">
<g clip-path="url(#clip0)">
<path fill-rule="evenodd" clip-rule="evenodd" d="M0 22.2714L18.6196 60.9052L22.0124 53.1943L9.91298 28.0915H19.866L26.7618 42.3996L30.1541 34.6887L24.1701 22.2714H0Z" fill="white"/>
<path fill-rule="evenodd" clip-rule="evenodd" d="M43.3836 4.54517L18.4531 61.0351L22.1263 68.6319L50.4075 4.54517H43.3836Z" fill="white"/>
<path fill-rule="evenodd" clip-rule="evenodd" d="M41.4062 47.7241H48.4133L67.5098 4.54517H50.6918L48.1267 10.3461H57.9368L41.4062 47.7241Z" fill="white"/>
<path fill-rule="evenodd" clip-rule="evenodd" d="M77.2883 10.6724V14.9839H79.283C79.6953 14.9839 80.0616 14.9298 80.3803 14.8221C80.6458 14.7285 80.8794 14.5807 81.0788 14.3794C81.2507 14.2044 81.37 13.9831 81.4375 13.7135C81.5032 13.4195 81.5369 13.1372 81.5369 12.869C81.5369 12.0895 81.3438 11.5259 80.9586 11.176C80.5855 10.8405 79.9743 10.6724 79.1237 10.6724H77.2883ZM82.514 5.83813H77.2883V9.14201H79.3627C80.0409 9.14201 80.6193 9.22973 81.0986 9.40335C81.5765 9.57834 81.9825 9.83378 82.3146 10.1697C82.6472 10.5051 82.8867 10.8814 83.0329 11.2969C83.1927 11.7409 83.2728 12.2236 83.2728 12.7468C83.2728 13.9167 82.9537 14.8421 82.3146 15.5275C81.6764 16.2125 80.7192 16.5547 79.4428 16.5547H76.4103V16.5343H75.5723V4.26642H82.514V5.83813Z" fill="white"/>
<path fill-rule="evenodd" clip-rule="evenodd" d="M91.9939 16.5344V5.87877H88.7233V6.82552C88.7233 7.59093 88.7157 8.16225 88.7031 8.53723C88.6756 9.19582 88.6558 9.72624 88.6432 10.1285C88.6297 10.4912 88.596 10.9348 88.5433 11.4584L88.4438 12.4656C88.3507 13.271 88.2112 13.9491 88.0248 14.4996C87.8516 15.0241 87.6256 15.4468 87.3461 15.7686C87.0806 16.0922 86.7944 16.3072 86.4892 16.4135C86.1292 16.5485 85.7903 16.6149 85.4721 16.6149C85.1917 16.6149 84.8933 16.5608 84.5742 16.454V14.9232C84.8132 14.9909 85.0589 15.0241 85.311 15.0241C85.4721 15.0241 85.644 14.9764 85.8308 14.8832C85.9636 14.8155 86.1031 14.6746 86.2493 14.46C86.3695 14.285 86.482 14.0173 86.5887 13.6537C86.6949 13.3192 86.7746 12.8956 86.8277 12.3852L86.9078 11.418C86.9613 10.8948 86.9937 10.4507 87.0072 10.0885C87.0207 9.60489 87.0406 9.08128 87.0676 8.51723C87.0937 7.76546 87.1072 7.18777 87.1072 6.78553V4.2666H93.71V16.5344H91.9939Z" fill="white"/>
<path fill-rule="evenodd" clip-rule="evenodd" d="M98.5844 12.083H101.836L100.28 6.52288L98.5844 12.083ZM99.4417 4.26666H101.257L104.987 16.5345H103.092L102.274 13.6338H98.1051L97.2283 16.5345H95.4727L99.4417 4.26666Z" fill="white"/>
<path fill-rule="evenodd" clip-rule="evenodd" d="M113.419 5.83826H108.532V16.5344H106.816V4.26654H113.419V5.83826Z" fill="white"/>
<path fill-rule="evenodd" clip-rule="evenodd" d="M116.487 12.3044C116.487 13.2312 116.679 13.943 117.065 14.4393C117.451 14.9234 118.082 15.1656 118.96 15.1656C119.837 15.1656 120.475 14.9234 120.875 14.4393C121.26 13.9693 121.453 13.2576 121.453 12.3044V8.53741C121.453 6.59072 120.622 5.61715 118.96 5.61715C118.162 5.61715 117.55 5.85849 117.125 6.34164C116.699 6.83888 116.487 7.5702 116.487 8.53741V12.3044ZM114.771 8.73921C114.771 7.27567 115.124 6.12711 115.829 5.29399C116.52 4.47495 117.577 4.06543 119 4.06543C120.41 4.06543 121.46 4.47495 122.152 5.29399C122.842 6.11393 123.189 7.26158 123.189 8.73921V12.1231C123.189 13.5866 122.83 14.7211 122.112 15.5274C121.393 16.3333 120.336 16.7355 118.94 16.7355C117.53 16.7355 116.487 16.3333 115.808 15.5274C115.116 14.7084 114.771 13.573 114.771 12.1231V8.73921Z" fill="white"/>
<path fill-rule="evenodd" clip-rule="evenodd" d="M132.503 5.85865H129.491V16.5343H127.775V5.85865H124.604V4.26648H132.503V5.85865Z" fill="white"/>
<path fill-rule="evenodd" clip-rule="evenodd" d="M136.081 11.0355V14.9643H138.036C138.86 14.9643 139.458 14.8093 139.83 14.4998C140.19 14.1912 140.369 13.6876 140.369 12.9899C140.369 12.3445 140.203 11.8545 139.871 11.5186C139.551 11.1968 138.953 11.0355 138.076 11.0355H136.081ZM136.081 5.83807V9.56465H137.996C138.421 9.56465 138.767 9.51829 139.033 9.42329C139.312 9.31693 139.518 9.18194 139.651 9.02105C139.798 8.83288 139.897 8.63789 139.951 8.43654C140.016 8.19519 140.051 7.94748 140.051 7.69204C140.051 6.98027 139.858 6.48985 139.471 6.22077C139.1 5.96534 138.547 5.83807 137.817 5.83807H136.081ZM134.385 16.5346V4.26636H137.976C139.319 4.26636 140.296 4.55588 140.908 5.13357C141.507 5.69763 141.805 6.46985 141.805 7.44933C141.805 8.16247 141.665 8.71925 141.387 9.12195C141.094 9.53828 140.688 9.87372 140.17 10.1287C140.795 10.3037 141.28 10.6391 141.626 11.1364C141.971 11.6331 142.145 12.2776 142.145 13.0708C142.145 13.5403 142.078 13.9766 141.944 14.3793C141.812 14.7952 141.592 15.1656 141.287 15.487C140.981 15.8088 140.575 16.0642 140.07 16.2528C139.551 16.4415 138.92 16.5346 138.175 16.5346H134.385Z" fill="white"/>
<path fill-rule="evenodd" clip-rule="evenodd" d="M145.759 12.3044C145.759 13.2312 145.952 13.943 146.337 14.4393C146.723 14.9234 147.354 15.1656 148.232 15.1656C149.109 15.1656 149.749 14.9234 150.147 14.4393C150.533 13.9693 150.726 13.2576 150.726 12.3044V8.53741C150.726 6.59072 149.894 5.61715 148.232 5.61715C147.434 5.61715 146.822 5.85849 146.398 6.34164C145.972 6.83888 145.759 7.5702 145.759 8.53741V12.3044ZM144.043 8.73921C144.043 7.27567 144.396 6.12711 145.101 5.29399C145.791 4.47495 146.849 4.06543 148.272 4.06543C149.682 4.06543 150.732 4.47495 151.423 5.29399C152.116 6.11393 152.461 7.26158 152.461 8.73921V12.1231C152.461 13.5866 152.102 14.7211 151.383 15.5274C150.667 16.3333 149.61 16.7355 148.212 16.7355C146.803 16.7355 145.759 16.3333 145.08 15.5274C144.39 14.7084 144.043 13.573 144.043 12.1231V8.73921Z" fill="white"/>
<path fill-rule="evenodd" clip-rule="evenodd" d="M156.441 5.83826V10.5716H158.157C158.609 10.5716 159.001 10.5052 159.334 10.3711C159.626 10.2493 159.852 10.0825 160.013 9.86708C160.158 9.66528 160.265 9.42347 160.332 9.14213C160.384 8.91305 160.41 8.63762 160.41 8.31582C160.41 7.50996 160.238 6.89182 159.893 6.46231C159.56 6.04733 158.927 5.83826 157.997 5.83826H156.441ZM162.166 8.13447C162.166 8.6858 162.093 9.21622 161.946 9.72664C161.814 10.1693 161.588 10.5857 161.269 10.9756C160.976 11.3247 160.57 11.6065 160.052 11.8215C159.546 12.0228 158.955 12.1228 158.277 12.1228H156.441V16.5344H154.727V4.26654H158.197C158.927 4.26654 159.546 4.36744 160.052 4.57016C160.558 4.7706 160.97 5.04649 161.289 5.39465C161.594 5.71735 161.82 6.12733 161.967 6.62411C162.099 7.06681 162.166 7.57041 162.166 8.13447Z" fill="white"/>
<path fill-rule="evenodd" clip-rule="evenodd" d="M165.816 4.26654V8.73943L165.796 13.4323L170.683 4.26654H172.379V16.5344H170.683V7.40906L165.816 16.5344H164.121V4.26654H165.816Z" fill="white"/>
<path fill-rule="evenodd" clip-rule="evenodd" d="M182.149 5.85865H179.138V16.5343H177.421V5.85865H174.25V4.26648H182.149V5.85865Z" fill="white"/>
<path fill-rule="evenodd" clip-rule="evenodd" d="M190.754 16.5344H184.033V4.2666H190.674V5.83832H185.748V9.54444H190.177V11.0762H185.748V14.9641H190.754V16.5344Z" fill="white"/>
<path fill-rule="evenodd" clip-rule="evenodd" d="M199.742 16.5344V5.87877H196.47V6.82552C196.47 7.59093 196.466 8.16225 196.451 8.53723C196.425 9.19582 196.405 9.72624 196.392 10.1285C196.377 10.4912 196.346 10.9348 196.292 11.4584L196.192 12.4656C196.099 13.271 195.96 13.9491 195.774 14.4996C195.601 15.0241 195.374 15.4468 195.095 15.7686C194.829 16.0922 194.543 16.3072 194.238 16.4135C193.879 16.5485 193.539 16.6149 193.22 16.6149C192.942 16.6149 192.642 16.5608 192.322 16.454V14.9232C192.562 14.9909 192.808 15.0241 193.061 15.0241C193.22 15.0241 193.393 14.9764 193.579 14.8832C193.712 14.8155 193.851 14.6746 193.998 14.46C194.118 14.285 194.231 14.0173 194.337 13.6537C194.444 13.3192 194.524 12.8956 194.576 12.3852L194.656 11.418C194.709 10.8948 194.743 10.4507 194.756 10.0885C194.769 9.60489 194.789 9.08128 194.816 8.51723C194.843 7.76546 194.856 7.18777 194.856 6.78553V4.2666H201.458V16.5344H199.742Z" fill="white"/>
<path fill-rule="evenodd" clip-rule="evenodd" d="M205.708 10.0687V14.9643H207.703C208.155 14.9643 208.521 14.8961 208.8 14.7611C209.092 14.6284 209.325 14.4534 209.499 14.2389C209.671 14.0234 209.79 13.7685 209.857 13.4726C209.923 13.1649 209.956 12.8617 209.956 12.5658C209.956 11.7604 209.764 11.1427 209.378 10.7137C208.993 10.2837 208.381 10.0687 207.544 10.0687H205.708ZM205.708 8.51744H207.782C208.408 8.51744 208.985 8.62471 209.519 8.83969C210.01 9.04104 210.416 9.3233 210.735 9.68509C211.067 10.0619 211.306 10.4782 211.453 10.9346C211.613 11.4182 211.692 11.929 211.692 12.4654C211.692 13.0299 211.613 13.5667 211.453 14.0771C211.292 14.5743 211.053 15.0038 210.735 15.3661C210.416 15.7288 210.016 16.0115 209.538 16.2128C209.033 16.4278 208.473 16.5346 207.862 16.5346H203.992V4.26636H205.708V8.51744Z" fill="white"/>
<path fill-rule="evenodd" clip-rule="evenodd" d="M221.844 16.5344H220.128V11.0352H215.381V16.5344H213.666V4.2666H215.381V9.42308H220.128V4.2666H221.844V16.5344Z" fill="white"/>
<mask id="mask0" mask-type="alpha" maskUnits="userSpaceOnUse" x="0" y="0" width="282" height="78">
<path d="M0 77.9916H281.388V0.317749H0V77.9916Z" fill="white"/>
</mask>
<g mask="url(#mask0)">
<path fill-rule="evenodd" clip-rule="evenodd" d="M233.325 16.5344H235.041V4.26654H233.325V16.5344ZM226.104 10.0689V14.964H227.84C228.292 14.964 228.657 14.8963 228.937 14.7609C229.23 14.6281 229.462 14.4536 229.634 14.2386C229.807 14.0232 229.927 13.7677 229.994 13.4723C230.06 13.1646 230.094 12.8614 230.094 12.5655C230.094 11.7597 229.901 11.1425 229.514 10.7138C229.129 10.283 228.518 10.0689 227.679 10.0689H226.104ZM231.83 12.4655C231.83 13.0291 231.749 13.5664 231.589 14.0768C231.43 14.5745 231.191 15.004 230.872 15.3658C230.552 15.7285 230.153 16.0112 229.675 16.2126C229.169 16.4276 228.611 16.5344 227.999 16.5344H224.389V4.26654H226.104V8.51763H227.92C228.545 8.51763 229.123 8.62444 229.655 8.83988C230.146 9.04077 230.552 9.32303 230.872 9.68482C231.203 10.0616 231.443 10.478 231.589 10.9343C231.749 11.4174 231.83 11.9283 231.83 12.4655Z" fill="white"/>
<path fill-rule="evenodd" clip-rule="evenodd" d="M244.238 0.317932C244.238 1.11106 244.019 1.73511 243.58 2.19145C243.141 2.66187 242.516 2.89731 241.705 2.89731C240.828 2.89731 240.182 2.66187 239.77 2.19145C239.344 1.69511 239.132 1.07106 239.132 0.317932H240.449C240.449 0.828808 240.574 1.19197 240.828 1.4065C241.08 1.62239 241.373 1.72875 241.705 1.72875C241.985 1.72875 242.251 1.62239 242.503 1.4065C242.755 1.19197 242.881 0.828808 242.881 0.317932H244.238ZM239.272 4.26676V8.7392L239.253 13.4325L244.138 4.26676H245.834V16.5346H244.138V7.40928L239.272 16.5346H237.576V4.26676H239.272Z" fill="white"/>
<path fill-rule="evenodd" clip-rule="evenodd" d="M82.0423 22.0601V29.6537H82.2813C82.7462 29.6537 83.1792 29.5996 83.5775 29.4932C83.9898 29.3846 84.3084 29.2241 84.5348 29.0092C84.8273 28.741 85.0267 28.4178 85.1334 28.0415C85.2531 27.6393 85.3129 27.1488 85.3129 26.5721V25.1617C85.3129 24.5713 85.2459 24.0809 85.1136 23.6909C84.9668 23.275 84.7742 22.9527 84.5348 22.7241C84.2688 22.4682 83.9497 22.2951 83.5775 22.201C83.2188 22.1069 82.7867 22.0601 82.2813 22.0601H82.0423ZM77.0755 26.5721C77.0755 27.1088 77.1412 27.5997 77.2739 28.0415C77.3937 28.4578 77.5795 28.781 77.832 29.0092C78.0588 29.2241 78.3779 29.3846 78.7897 29.4932C79.1894 29.5996 79.6278 29.6537 80.1071 29.6537H80.3659V22.0601H80.1071C79.6017 22.0601 79.1696 22.1069 78.8109 22.201C78.4648 22.2951 78.152 22.4682 77.873 22.7241C77.6074 22.9655 77.4076 23.2882 77.2739 23.6909C77.1412 24.0809 77.0755 24.5713 77.0755 25.1617V26.5721ZM75.3594 25.2835C75.3594 23.6582 75.7653 22.4623 76.5759 21.6965C77.3865 20.9306 78.5643 20.5488 80.1071 20.5488H80.3659V19.2998H82.0423V20.5488H82.2813C83.8097 20.5488 84.9871 20.9306 85.8116 21.6965C86.6217 22.4623 87.0277 23.6582 87.0277 25.2835V26.4511C87.0277 28.0897 86.6217 29.2782 85.8116 30.0159C84.9871 30.769 83.8097 31.144 82.2813 31.144H82.0423V32.5148H80.3659V31.144H80.1071C78.5778 31.144 77.4 30.769 76.5759 30.0159C75.7653 29.2782 75.3594 28.0897 75.3594 26.4511V25.2835Z" fill="white"/>
<path fill-rule="evenodd" clip-rule="evenodd" d="M90.6054 27.8002C90.6054 28.727 90.7984 29.4387 91.1846 29.936C91.5698 30.42 92.2017 30.6614 93.0798 30.6614C93.9574 30.6614 94.5952 30.42 94.9944 29.936C95.3792 29.4669 95.5722 28.7551 95.5722 27.8002V24.0332C95.5722 22.0869 94.7419 21.1134 93.0798 21.1134C92.2818 21.1134 91.6702 21.3547 91.2444 21.8374C90.8187 22.3351 90.6054 23.0669 90.6054 24.0332V27.8002ZM88.8906 24.2359C88.8906 22.7719 89.2435 21.6238 89.9483 20.7902C90.6391 19.9716 91.6963 19.5616 93.1194 19.5616C94.5294 19.5616 95.5785 19.9716 96.2707 20.7902C96.9625 21.6097 97.3081 22.7578 97.3081 24.2359V27.6198C97.3081 29.0833 96.9494 30.2173 96.2311 31.0236C95.5128 31.8295 94.4556 32.2317 93.0595 32.2317C91.6504 32.2317 90.6054 31.8295 89.928 31.0236C89.2358 30.2046 88.8906 29.0692 88.8906 27.6198V24.2359Z" fill="white"/>
<path fill-rule="evenodd" clip-rule="evenodd" d="M107.753 32.0311H106.038V26.5315H101.291V32.0311H99.5742V19.7628H101.291V24.9198H106.038V19.7628H107.753V32.0311Z" fill="white"/>
<path fill-rule="evenodd" clip-rule="evenodd" d="M113.562 28.0018C113.468 28.5404 113.316 29.0163 113.103 29.4326C112.891 29.8626 112.704 30.1849 112.545 30.3994H117.013V21.375H113.921V22.5431C113.921 23.4035 113.914 24.0134 113.902 24.3766C113.889 24.578 113.872 24.8393 113.851 25.162C113.831 25.4843 113.822 25.7056 113.822 25.8261C113.809 26.001 113.769 26.3974 113.702 27.0151C113.649 27.4728 113.602 27.8005 113.562 28.0018ZM120.324 34.191H118.768V32.0311H111.129V34.191H109.553V30.3994H110.669C110.922 30.1444 111.163 29.789 111.388 29.3322C111.627 28.8622 111.8 28.3913 111.907 27.9209C111.986 27.5455 112.047 27.2501 112.086 27.0351C112.138 26.7805 112.186 26.411 112.226 25.927C112.238 25.8338 112.259 25.3434 112.286 24.4566C112.299 24.0812 112.305 23.4158 112.305 22.4622V19.7628H118.728V30.3994H120.324V34.191Z" fill="white"/>
<path fill-rule="evenodd" clip-rule="evenodd" d="M130.656 26.7935V29.976H132.192C132.817 29.976 133.255 29.8487 133.508 29.5937C133.774 29.3247 133.908 28.9156 133.908 28.3652C133.908 27.8002 133.78 27.398 133.528 27.1557C133.262 26.9144 132.823 26.7935 132.212 26.7935H130.656ZM130.656 21.7974V24.92H132.112C132.71 24.92 133.116 24.7727 133.328 24.4768C133.541 24.1814 133.647 23.7987 133.647 23.3292C133.647 22.7642 133.515 22.3683 133.249 22.1411C132.982 21.912 132.571 21.7974 132.012 21.7974H130.656ZM128.223 32.0309V19.7626H132.212C133.609 19.7626 134.618 20.0385 135.243 20.5889C135.895 21.1661 136.221 21.952 136.221 22.9455C136.221 23.6305 136.082 24.175 135.803 24.5777C135.51 24.994 135.091 25.3236 134.545 25.5645C135.795 25.9808 136.421 26.9739 136.421 28.5461C136.421 29.0165 136.36 29.4588 136.241 29.8751C136.135 30.2651 135.908 30.6346 135.562 30.9837C135.23 31.3191 134.817 31.5741 134.325 31.7486C133.794 31.9372 133.163 32.0309 132.431 32.0309H128.223Z" fill="white"/>
<path fill-rule="evenodd" clip-rule="evenodd" d="M145.052 32.0311V21.8981H142.438V22.644C142.438 23.8398 142.412 24.8461 142.359 25.6652C142.293 26.6465 142.225 27.3905 142.159 27.9009C142.066 28.7209 141.913 29.4126 141.701 29.9762C141.488 30.5671 141.262 30.9971 141.023 31.2648C140.756 31.5739 140.444 31.8029 140.085 31.9502C139.766 32.0843 139.38 32.1515 138.928 32.1515C138.781 32.1515 138.589 32.1384 138.349 32.1111C138.15 32.0843 137.964 32.0443 137.791 31.9902V29.8753C138.03 29.9431 138.27 29.9762 138.51 29.9762C138.801 29.9762 139.068 29.8226 139.307 29.5131C139.533 29.2176 139.719 28.6327 139.865 27.7605C139.918 27.4519 139.952 27.1555 139.965 26.8733C139.965 26.7805 139.976 26.5955 139.995 26.3201C140.016 26.0442 140.031 25.8261 140.045 25.6652C140.058 25.2229 140.079 24.7384 140.105 24.2153C140.118 23.8657 140.125 23.3353 140.125 22.6235V19.7628H147.524V32.0311H145.052Z" fill="white"/>
<path fill-rule="evenodd" clip-rule="evenodd" d="M152.775 27.5996H155.309L154.092 22.644L152.775 27.5996ZM152.895 19.7628H155.588L159.098 32.0311H156.385L155.787 29.594H152.237L151.579 32.0311H149.086L152.895 19.7628Z" fill="white"/>
<path fill-rule="evenodd" clip-rule="evenodd" d="M164.732 27.5792C164.64 28.0897 164.507 28.5524 164.334 28.9687C164.226 29.2373 164.074 29.5532 163.876 29.9155H167.645V21.8573H165.072V22.6837C165.072 23.705 165.039 24.6658 164.972 25.5644C164.919 26.3575 164.839 27.0284 164.732 27.5792ZM171.614 35.0524H169.48V32.0312H162.378V35.0524H160.244V29.9155H161.342C161.594 29.5941 161.808 29.2373 161.98 28.8478C162.152 28.4583 162.305 27.9688 162.438 27.3783C162.479 27.2034 162.526 26.9416 162.578 26.592C162.645 26.0953 162.685 25.7598 162.697 25.5848C162.697 25.4903 162.708 25.2998 162.728 25.0112C162.748 24.7222 162.765 24.4835 162.777 24.2958C162.791 23.9731 162.798 23.4232 162.798 22.6441V19.7629H170.119V29.9155H171.614V35.0524Z" fill="white"/>
<path fill-rule="evenodd" clip-rule="evenodd" d="M175.707 19.7628V23.9525L175.627 27.9418L179.837 19.7628H182.19V32.0311H179.856V27.5791L179.916 23.9325L175.707 32.0311H173.354V19.7628H175.707Z" fill="white"/>
<path fill-rule="evenodd" clip-rule="evenodd" d="M186.824 23.9732L186.944 27.9211V32.0313H184.59V19.7626H186.864V19.783L186.944 19.7626L189.776 25.5645L192.609 19.7626L192.688 19.783V19.7626H194.942V32.0313H192.609V28.0825L192.708 23.7719L190.614 28.3452H188.839L186.824 23.9732Z" fill="white"/>
<path fill-rule="evenodd" clip-rule="evenodd" d="M199.683 19.7628V23.9525L199.603 27.9418L203.813 19.7628H206.165V32.0311H203.833V27.5791L203.892 23.9325L199.683 32.0311H197.33V19.7628H199.683Z" fill="white"/>
<path fill-rule="evenodd" clip-rule="evenodd" d="M211.038 21.8573V26.0075H212.136C212.574 26.0075 212.913 25.9607 213.153 25.8666C213.392 25.773 213.592 25.6253 213.751 25.4244C213.911 25.2226 214.017 25.008 214.07 24.779C214.123 24.5649 214.15 24.2895 214.15 23.9522C214.15 23.295 214.004 22.7777 213.711 22.4023C213.431 22.0401 212.886 21.8573 212.076 21.8573H211.038ZM216.643 23.8727C216.643 24.4367 216.558 24.994 216.384 25.5444C216.224 26.0553 215.979 26.498 215.645 26.8734C215.327 27.237 214.901 27.5324 214.369 27.7601C213.863 27.9751 213.259 28.0824 212.554 28.0824H211.038V32.0312H208.564V19.7629H212.474C213.205 19.7629 213.831 19.8634 214.349 20.0661C214.855 20.2665 215.293 20.562 215.666 20.9515C215.999 21.3006 216.244 21.7305 216.404 22.241C216.563 22.7514 216.643 23.295 216.643 23.8727Z" fill="white"/>
<path fill-rule="evenodd" clip-rule="evenodd" d="M220.379 27.5996H222.912L221.696 22.644L220.379 27.5996ZM220.499 19.7628H223.191L226.703 32.0311H223.989L223.391 29.594H219.841L219.182 32.0311H216.689L220.499 19.7628Z" fill="white"/>
<path fill-rule="evenodd" clip-rule="evenodd" d="M84.3692 47.5269H81.8754V37.3944H78.0462V47.5269H75.5723V35.2595H84.3692V47.5269Z" fill="white"/>
<path fill-rule="evenodd" clip-rule="evenodd" d="M88.959 43.0958C88.959 43.9153 89.0926 44.5448 89.3577 44.9894C89.6377 45.4457 90.1498 45.6734 90.8938 45.6734C91.6386 45.6734 92.1503 45.4457 92.4298 44.9894C92.6954 44.5448 92.829 43.9153 92.829 43.0958V39.752C92.829 38.8916 92.69 38.2339 92.4096 37.7776C92.1305 37.3212 91.6319 37.0922 90.914 37.0922C90.1822 37.0922 89.6773 37.3212 89.3973 37.7776C89.1048 38.2603 88.959 38.9198 88.959 39.752V43.0958ZM86.4863 39.9533C86.4863 38.3543 86.8576 37.1399 87.6029 36.3067C88.3482 35.4741 89.4585 35.0577 90.9338 35.0577C92.383 35.0577 93.4803 35.4813 94.2247 36.3267C94.956 37.1599 95.3224 38.3689 95.3224 39.9533V42.8945C95.3224 44.5189 94.956 45.7275 94.2247 46.5193C93.4803 47.3256 92.3695 47.7283 90.8938 47.7283C89.4185 47.7283 88.314 47.3256 87.5831 46.5193C86.8513 45.7275 86.4863 44.5189 86.4863 42.8945V39.9533Z" fill="white"/>
<path fill-rule="evenodd" clip-rule="evenodd" d="M104.804 37.3538H102.011V47.5268H99.538V37.3538H96.6855V35.2594H104.804V37.3538Z" fill="white"/>
<path fill-rule="evenodd" clip-rule="evenodd" d="M108.144 43.0958H110.676L109.46 38.1398L108.144 43.0958ZM108.263 35.2595H110.956L114.467 47.5269H111.754L111.155 45.0902H107.605L106.947 47.5269H104.453L108.263 35.2595Z" fill="white"/>
<path fill-rule="evenodd" clip-rule="evenodd" d="M124.985 47.5269H122.491V42.3295H118.561V47.5269H116.088V35.2595H118.561V40.1947H122.491V35.2595H124.985V47.5269Z" fill="white"/>
<path fill-rule="evenodd" clip-rule="evenodd" d="M129.736 35.2594V39.4491L129.657 43.4375L133.865 35.2594H136.218V47.5268H133.885V43.0748L133.945 39.4287L129.736 47.5268H127.383V35.2594H129.736Z" fill="white"/>
<path fill-rule="evenodd" clip-rule="evenodd" d="M147.516 47.5269H145.023V42.3295H141.094V47.5269H138.619V35.2595H141.094V40.1947H145.023V35.2595H147.516V47.5269Z" fill="white"/>
<path fill-rule="evenodd" clip-rule="evenodd" d="M152.775 43.0958H155.309L154.092 38.1398L152.775 43.0958ZM152.895 35.2595H155.588L159.098 47.5269H156.385L155.787 45.0902H152.237L151.579 47.5269H149.086L152.895 35.2595Z" fill="white"/>
</g>
</g>
<defs>
<clipPath id="clip0">
<rect width="246" height="69" fill="white"/>
</clipPath>
</defs>
</svg>
