<svg width="267" height="78" viewBox="0 0 267 78" fill="none" xmlns="http://www.w3.org/2000/svg">
<path d="M60.5004 40.8C60.2004 37.7 59.0004 35 57.0004 32.7C56.0004 31.5 55.1004 29.3 53.3004 29.7C51.2004 30.1 51.3004 32.7 51.1004 34.3C50.7004 37.5 51.0004 40.7 51.0004 44.6C48.2004 43.1 45.2004 43.1 46.4004 39.2C46.8004 38 46.0004 36.3 45.5004 34.9C43.4004 27.7 42.0004 27.3 36.3004 31.8C35.2004 32.6 34.4004 33.6 33.6004 34.6C32.1004 36.5 30.4004 37.6 28.0004 36.9C25.7004 36.3 24.1004 34.6 23.8004 32.4C23.1004 25.8 18.3004 20.6 17.5004 14C17.3004 12.4 16.3004 9.5 13.8004 10.2C11.5004 10.8 12.9004 13.4 12.6004 15C12.4004 16 12.6004 17 12.6004 18C12.1004 25.1 13.4004 31.9 14.8004 38.7C15.1004 40 15.5004 42.3 13.5004 42.5C11.5004 42.7 11.0004 40.7 10.8004 39C10.6004 37.2 10.6004 35.3 10.1004 33.6C9.40036 30.8 8.40036 27.3 5.10036 27.6C1.60036 28 2.80036 31.8 2.70036 34.3C2.60036 36.1 2.30036 38.9 4.30036 38.9C7.00036 39 5.40036 36 5.90036 34.5C6.10036 34 6.20036 33.9 6.80036 34.5C8.30036 36.4 7.30036 39 7.60036 41.4C8.20036 46 10.4004 47.3 14.4004 45.3C17.4004 43.8 21.1004 43.1 22.7004 39.5C23.0004 38.7 24.1004 38.3 24.8004 38.8C28.3004 41.1 33.5004 37.2 36.3004 42C36.6004 42.5 37.8004 42.5 38.6004 42.6C49.1004 44.4 50.0004 45.4 51.8004 56.1C52.4004 59.4 52.1004 62.8 53.7004 65.8C54.5004 67.4 55.2004 69.6 57.5004 69.1C60.1004 68.5 59.3004 66.2 59.0004 64.5C58.3004 60.9 57.6004 57.4 56.0004 54C53.3004 48.2 53.8004 41.9 53.9004 35.7C55.5004 37.7 55.5004 40.4 57.3004 42.2C58.1004 43 58.8004 43.6 59.9004 43C61.1004 42.4 60.5004 41.5 60.5004 40.8ZM17.4004 33C14.8004 28.3 15.1004 24.7 16.3004 21C18.0004 24.4 18.0004 28 17.4004 33ZM40.7004 39.3C38.4004 39.4 38.8004 37.1 38.7004 35.6C38.7004 33.5 39.2004 31.2 41.5004 31.2C43.6004 31.2 42.9004 33.8 43.4004 35.2C43.4004 37.2 42.8004 39.3 40.7004 39.3ZM110 29C109 23.9 106.6 19.3 105.6 14.2C105 19.9 106.9 25.1 108.9 30.3C108.9 32.3 109.5 34.3 108.6 36.2C108.1 37.2 107.1 38.9 106.3 37.1C105.4 35.1 103.2 34.8 102.3 32.9C99.5004 27.2 97.7004 27.3 94.1004 32.4C92.9004 34.1 93.2004 37.4 90.6004 37.1C88.1004 36.8 91.3004 33.2 88.6004 32.1C83.0004 41 84.3004 29.4 81.1004 29.7C79.8004 31.2 80.6004 33.3 80.3004 35.2C79.9004 37.4 78.6004 38.9 76.3004 39C73.9004 39.1 73.3004 37.3 73.1004 35.3C72.9004 33.2 72.7004 31.2 70.8004 30.1C68.7004 31.3 70.4004 33.7 68.4004 34.7C68.2004 33.2 68.0004 31.7 67.7004 30.3C67.6004 29.7 67.0004 29.1 66.5004 28.9C65.9004 28.6 65.4004 29.2 64.9004 29.8C63.0004 32.6 64.9004 40.4 68.0004 40.7C73.3004 41.2 79.3004 42.2 83.7004 40.2C87.7004 38.4 90.7004 39 93.6004 40.4C98.9004 42.9 103.6 40 108.6 39.9C110.1 39.9 111.6 37.9 111.5 35.7C111.1 33.5 111.2 31.1 110 29ZM98.3004 36.9C97.2004 36.7 97.2004 35.5 97.2004 34.5C97.2004 33.5 97.4004 32.6 98.6004 32.2C99.7004 32.6 100 33.5 100 34.5C100 35.7 99.9004 37.1 98.3004 36.9ZM173 33C172.2 31.7 170.6 32 169.2 31.9C169.1 31.9 169 31.9 168.9 31.9C168.7 31.9 168.4 31.9 168.2 31.8C168.1 31.8 168 31.8 168 31.7C167.9 31.7 167.8 31.7 167.8 31.6C167.6 31.5 167.5 31.5 167.4 31.4C167.3 31.4 167.3 31.3 167.2 31.2C167.1 31.2 167.1 31.1 167 31C166.9 30.9 166.9 30.9 166.8 30.8C166.7 30.7 166.7 30.6 166.6 30.5C166.5 30.3 166.4 30.1 166.4 29.9C166.4 29.8 166.3 29.6 166.3 29.5C166.3 29.3 165.9 29.2 165.8 29.4C165.2 30.7 164.7 31.9 164.3 33C164.3 33.1 164.2 33.1 164.2 33.2C164.1 33.5 163.9 33.8 163.8 34.1C163.3 35.2 162.7 36.4 161.8 37C161.1 37.5 160.2 37.7 159 37.1C156.1 35.7 158.3 33.8 159.1 32.2C159.3 31.8 159.7 31.3 159.8 30.9C160.3 28.7 160.8 26.2 158.1 25.4C155.6 24.6 154.8 27 154.1 28.9C153.9 29.5 153.8 30.2 153.8 30.9C153.6 33.2 152.4 34.6 150 34.8C147.8 35 146.7 34.1 145.3 32.2C142.2 27.9 142.6 22.7 141 18.1C140.3 16.2 140 13.3 137 14C134.1 14.6 133.9 17.3 134.1 19.6C134.4 23.6 135.2 27.5 135.7 31.4C135.9 32.9 136.6 34.4 134 35.2C130 36.5 126.8 35 126.6 30.7C126.5 28.2 127.2 25.7 126.9 23.3C126.5 20.3 128.6 15 124.4 14.8C121 14.6 122.2 19.9 121.6 22.9C122.1 25.7 122.6 28.4 123 31.2C123.1 31.6 122.7 32 122.4 32.8C119.9 29.8 121 26.3 120.5 23.2C120 19.8 119.4 16.4 118.9 13C118.7 12 118.3 10.8 117.2 10.8C116 10.8 115.5 12 115.7 13C117.1 20.8 117 28.9 119.5 36.6C120.4 39.2 121.9 40.2 124.2 38C125.2 37 126.2 36.1 127.7 37.2C128.9 38.1 129.7 39.4 129.4 41.1C128.8 44 128.2 46.9 127.6 49.9C126 57.6 124.9 65.3 126.3 73.1C126.5 74.3 126.8 76 128.7 75.6C130.6 75.2 130.6 73.9 130.2 72.2C129.7 70 129.9 67.6 129.7 65.3C129.2 57.6 130.3 50 132 42.6C132.3 41.2 129.5 39.4 133 38.3C135.8 37.5 137.1 37.7 138.7 40.2C140.3 42.7 142.5 43.1 144.8 40.5C148.4 36.4 152.2 36 156.6 38.8C157.6 39.4 159.1 40.4 159.7 40.1C160.6 39.6 161.4 39.3 162.2 39.1C165.5 38.3 168.6 39.2 172 40C174.7 40.6 175.8 37.9 176 35.4C176.3 32.5 175.8 30.9 173 33ZM138.8 29.8C137.9 29.6 138 28.8 137.9 28.2C137.6 24.9 137.2 21.5 138.3 16.8C140.1 21.4 141.5 24.6 140.3 28.3C140.2 29.1 139.9 30 138.8 29.8ZM141.9 38.1C140.8 38 140.4 36.9 140.3 36C140.2 35.1 140.6 34.2 141.6 34.4C142.6 34.6 143.2 35.4 143.3 36.5C143.3 37.4 143 38.2 141.9 38.1ZM156 30.5C156 29.4 156.4 28.5 157.5 28.3C158.2 28.1 158.6 28.8 158.8 29.5C158.7 30.5 158.3 31.5 157.2 31.7C156.4 31.9 156 31.2 156 30.5ZM213.2 32.6C212.5 31.4 212.9 30.3 213.4 29.3C215.4 25.4 214.2 21.6 213 17.7C212.6 16.3 212 15 210.6 15C208.8 14.9 208.1 16.4 207.7 17.9C206.8 21.4 207.3 24.8 207.8 28.3C208.2 31.1 207.8 33.2 204.5 34.1C203.6 32.4 204.8 29.3 201.6 29.1C199.2 29 198 31 198 33C197.9 35.7 197.1 37.2 194.3 37.1C191.5 37 191.6 34.8 191.2 32.8C190.2 27.8 187.9 23.7 182.2 22.9C182 22.8 181.7 22.7 181.5 22.7C175 20.5 171.1 21.6 170.5 26C173.6 24.2 176.7 23.5 180.1 24C183.4 25 184.6 26.3 182.4 29.9C180.8 32.6 180.4 37.3 184.3 37.7C189.5 38.2 194.8 40.2 200.5 38C203.9 36.7 207.4 33 211.9 36.3C212.8 36.9 214.5 35.6 215.2 34.5C216.2 32.4 213.7 33.3 213.2 32.6ZM186.3 35.4C184.4 35.4 184.4 33.4 184.6 32C184.8 30.7 184.5 28.4 186.5 28.7C188.4 28.9 187.4 31.1 187.8 32.2C187.6 33.5 188.2 35.4 186.3 35.4ZM210.6 24.7C209.4 22.7 209.6 20.6 210.7 17.7C213.2 20 213.5 22 212.2 24.3C211.8 25 210.9 25.2 210.6 24.7ZM224.9 26C224.7 26.2 224.4 26.4 224.2 26.7C224.5 26.5 224.7 26.3 224.9 26.1C225 26.1 225 26.1 224.9 26Z" fill="#F7931E"/>
<path d="M60.5004 40.8C60.2004 37.7 59.0004 35 57.0004 32.7C56.0004 31.5 55.1004 29.3 53.3004 29.7C51.2004 30.1 51.3004 32.7 51.1004 34.3C50.7004 37.5 51.0004 40.7 51.0004 44.6C48.2004 43.1 45.2004 43.1 46.4004 39.2C46.8004 38 46.0004 36.3 45.5004 34.9C43.4004 27.7 42.0004 27.3 36.3004 31.8C35.2004 32.6 34.4004 33.6 33.6004 34.6C32.1004 36.5 30.4004 37.6 28.0004 36.9C25.7004 36.3 24.1004 34.6 23.8004 32.4C23.1004 25.8 18.3004 20.6 17.5004 14C17.3004 12.4 16.3004 9.5 13.8004 10.2C11.5004 10.8 12.9004 13.4 12.6004 15C12.4004 16 12.6004 17 12.6004 18C12.1004 25.1 13.4004 31.9 14.8004 38.7C15.1004 40 15.5004 42.3 13.5004 42.5C11.5004 42.7 11.0004 40.7 10.8004 39C10.6004 37.2 10.6004 35.3 10.1004 33.6C9.40036 30.8 8.40036 27.3 5.10036 27.6C1.60036 28 2.80036 31.8 2.70036 34.3C2.60036 36.1 2.30036 38.9 4.30036 38.9C7.00036 39 5.40036 36 5.90036 34.5C6.10036 34 6.20036 33.9 6.80036 34.5C8.30036 36.4 7.30036 39 7.60036 41.4C8.20036 46 10.4004 47.3 14.4004 45.3C17.4004 43.8 21.1004 43.1 22.7004 39.5C23.0004 38.7 24.1004 38.3 24.8004 38.8C28.3004 41.1 33.5004 37.2 36.3004 42C36.6004 42.5 37.8004 42.5 38.6004 42.6C49.1004 44.4 50.0004 45.4 51.8004 56.1C52.4004 59.4 52.1004 62.8 53.7004 65.8C54.5004 67.4 55.2004 69.6 57.5004 69.1C60.1004 68.5 59.3004 66.2 59.0004 64.5C58.3004 60.9 57.6004 57.4 56.0004 54C53.3004 48.2 53.8004 41.9 53.9004 35.7C55.5004 37.7 55.5004 40.4 57.3004 42.2C58.1004 43 58.8004 43.6 59.9004 43C61.1004 42.4 60.5004 41.5 60.5004 40.8ZM17.4004 33C14.8004 28.3 15.1004 24.7 16.3004 21C18.0004 24.4 18.0004 28 17.4004 33ZM40.7004 39.3C38.4004 39.4 38.8004 37.1 38.7004 35.6C38.7004 33.5 39.2004 31.2 41.5004 31.2C43.6004 31.2 42.9004 33.8 43.4004 35.2C43.4004 37.2 42.8004 39.3 40.7004 39.3Z" fill="#724F8B"/>
<path d="M172.999 33C172.199 31.7001 170.599 32 169.199 31.9C169.099 31.9 168.999 31.9 168.899 31.9C168.699 31.9 168.399 31.9 168.199 31.8C168.099 31.8 167.999 31.8001 167.999 31.7001C167.899 31.7001 167.799 31.7 167.799 31.6C167.599 31.5 167.499 31.5 167.399 31.4C167.299 31.4 167.299 31.3001 167.199 31.2001C167.099 31.2001 167.099 31.1 166.999 31C166.899 30.9 166.899 30.9 166.799 30.8C166.699 30.7 166.699 30.6 166.599 30.5C166.499 30.3 166.399 30.1 166.399 29.9C166.399 29.8 166.299 29.6 166.299 29.5C166.299 29.3 165.899 29.2 165.799 29.4C165.199 30.7 164.699 31.9 164.299 33C164.299 33.1 164.199 33.1 164.199 33.2001C164.099 33.5 163.899 33.8 163.799 34.1C163.299 35.2 162.699 36.4 161.799 37C161.099 37.5 160.199 37.7 158.999 37.1C156.099 35.7 158.299 33.8001 159.099 32.2001C159.299 31.8001 159.699 31.3 159.799 30.9C160.299 28.7 160.799 26.2 158.099 25.4C155.599 24.6 154.799 27 154.099 28.9C153.899 29.5 153.799 30.2 153.799 30.9C153.599 33.2 152.399 34.6 149.999 34.8C147.799 35 146.699 34.1 145.299 32.2001C142.199 27.9001 142.599 22.7 140.999 18.1C140.299 16.2 139.999 13.3 136.999 14C134.099 14.6 133.899 17.3 134.099 19.6C134.399 23.6 135.199 27.5 135.699 31.4C135.899 32.9 136.599 34.4001 133.999 35.2001C129.999 36.5 126.799 35 126.599 30.7001C126.499 28.2001 127.199 25.7 126.899 23.3C126.499 20.3 128.599 15 124.399 14.8C120.999 14.6 122.199 19.9 121.599 22.9C122.099 25.7 122.599 28.4001 122.999 31.2001C123.099 31.6 122.699 32 122.399 32.8C119.899 29.8 120.999 26.3 120.499 23.2C119.999 19.8 119.399 16.4 118.899 13C118.699 12 118.299 10.8 117.199 10.8C115.999 10.8 115.499 12 115.699 13C117.099 20.8 116.999 28.9 119.499 36.6C120.399 39.2 121.899 40.2001 124.199 38C125.199 37 126.199 36.1 127.699 37.2001C128.899 38.1 129.699 39.4 129.399 41.1C128.799 44 128.199 46.9001 127.599 49.9001C125.999 57.6001 124.899 65.3 126.299 73.1C126.499 74.3 126.799 76 128.699 75.6C130.599 75.2 130.599 73.9 130.199 72.2C129.699 70 129.899 67.6001 129.699 65.3001C129.199 57.6001 130.299 50 131.999 42.6C132.299 41.2 129.499 39.4 132.999 38.3C135.799 37.5 137.099 37.7001 138.699 40.2001C140.299 42.7001 142.499 43.1 144.799 40.5C148.399 36.4 152.199 36 156.599 38.8C157.599 39.4 159.099 40.4 159.699 40.1C160.599 39.6 161.399 39.3 162.199 39.1C165.499 38.3 168.599 39.2001 171.999 40C174.699 40.6 175.799 37.9001 175.999 35.4001C176.299 32.5001 175.799 30.9 172.999 33ZM138.799 29.8C137.899 29.6 137.999 28.8001 137.899 28.2001C137.599 24.9001 137.199 21.5 138.299 16.8C140.099 21.4 141.499 24.6 140.299 28.3C140.199 29.1 139.899 30 138.799 29.8ZM141.899 38.1C140.799 38 140.399 36.9 140.299 36C140.199 35.1 140.599 34.2001 141.599 34.4001C142.599 34.6001 143.199 35.4 143.299 36.5C143.299 37.4 142.999 38.2 141.899 38.1ZM155.999 30.5C155.999 29.4 156.399 28.5 157.499 28.3C158.199 28.1 158.599 28.8 158.799 29.5C158.699 30.5 158.299 31.5 157.199 31.7001C156.399 31.9001 155.999 31.2001 155.999 30.5Z" fill="#724F8B"/>
<path d="M110 29C109 28.8 108.5 29.1 108.8 30.3C108.8 32.3 109.4 34.3 108.5 36.2C108 37.2 107 38.9 106.2 37.1C105.3 35.1 103.1 34.8 102.2 32.9C99.4005 27.2 97.6005 27.3 94.0005 32.4C92.8005 34.1 93.1005 37.4 90.5005 37.1C88.0005 36.8 91.2005 33.2 88.5005 32.1C82.9005 41 84.2005 29.4 81.0005 29.7C79.7005 31.2 80.5005 33.3 80.2005 35.2C79.8005 37.4 78.5005 38.9 76.2005 39C73.8005 39.1 73.2005 37.3 73.0005 35.3C72.8005 33.2 72.6005 31.2 70.7005 30.1C68.6005 31.3 70.3005 33.7 68.3005 34.7C68.1005 33.2 67.9005 31.7 67.6005 30.3C67.5005 29.7 66.9005 29.1 66.4005 28.9C65.8005 28.6 65.3005 29.2 64.8005 29.8C62.9005 32.6 64.8005 40.4 67.9005 40.7C73.2005 41.2 79.2005 42.2 83.6005 40.2C87.6005 38.4 90.6005 39 93.5005 40.4C98.8005 42.9 103.5 40 108.5 39.9C110 39.9 111.5 37.9 111.4 35.7C111.1 33.5 111.2 31.1 110 29ZM98.3005 36.9C97.2005 36.7 97.2005 35.5 97.2005 34.5C97.2005 33.5 97.4005 32.6 98.6005 32.2C99.7005 32.6 100 33.5 100 34.5C100 35.7 99.9005 37.1 98.3005 36.9Z" fill="#73508C"/>
<path d="M213.199 32.6C212.499 31.4 212.899 30.3 213.399 29.3C215.399 25.4 214.199 21.6 212.999 17.7C212.599 16.3 211.999 15 210.599 15C208.799 14.9 208.099 16.4 207.699 17.9C206.799 21.4 207.299 24.8 207.799 28.3C208.199 31.1 207.799 33.2 204.499 34.1C203.599 32.4 204.799 29.3 201.599 29.1C199.199 29 197.999 31 197.999 33C197.899 35.7 197.099 37.2 194.299 37.1C191.499 37 191.599 34.8 191.199 32.8C190.199 27.8 187.899 23.7 182.199 22.9C181.999 22.8 181.699 22.7 181.499 22.7C180.699 22.4 179.999 22.5 180.099 24C183.399 25 184.599 26.3 182.399 29.9C180.799 32.6 180.399 37.3 184.299 37.7C189.499 38.2 194.799 40.2 200.499 38C203.899 36.7 207.399 33 211.899 36.3C212.799 36.9 214.499 35.6 215.199 34.5C216.199 32.4 213.699 33.3 213.199 32.6ZM186.299 35.4C184.399 35.4 184.399 33.4 184.599 32C184.799 30.7 184.499 28.4 186.499 28.7C188.399 28.9 187.399 31.1 187.799 32.2C187.599 33.5 188.199 35.4 186.299 35.4ZM210.599 24.7C209.399 22.7 209.599 20.6 210.699 17.7C213.199 20 213.499 22 212.199 24.3C211.799 25 210.899 25.2 210.599 24.7Z" fill="#74538D"/>
<path d="M224.301 26.7C224.601 26.5 224.801 26.3 225.001 26.1V26H224.901C224.701 26.2 224.401 26.5 224.301 26.7Z" fill="#7B5A92"/>
<path d="M262.2 32.7C258.2 33.5 254.1 34.3 250.1 35.1C243.4 34.5 236.6 36.2 230 34.1C225.9 32.9 227.9 28 225.1 26C225.3 24.8 224.6 24.1 223.5 24.1C220.6 24.3 217 30 217.9 32.8C218.8 35.6 220.4 37.4 223.3 35.4C225.3 34.1 227 34.3 228.8 35.2C237.2 37.9 245.6 37.4 254.1 36C256.9 35.8 259.7 35.7 262.5 35.3C263.5 35.2 265.1 35.2 264.9 33.5C264.7 31.8 263.2 32.5 262.2 32.7ZM225 26V26.1C224.8 27 224.7 27.9 224.3 28.8C223.7 30.3 223.9 32.3 221.9 32.8C221.1 33 220.7 32.2 220.8 31.5C220.9 29.4 220.5 27 223.1 26C223.6 25.9 224.3 26 225 26Z" fill="#724F8B"/>
<path d="M110 29C109.6 29.4 109.2 29.7999 108.8 30.2999C106.8 25.0999 105 20 105.5 14.2C106.5 19.3 109 23.9 110 29Z" fill="#8D71A1"/>
<path d="M182.2 22.9C181.4 23.1 180.5 23.1 180 24C176.6 23.5 173.5 24.2 170.4 26C171.1 21.6 174.9 20.5 181.4 22.7C181.7 22.7 181.9 22.8 182.2 22.9Z" fill="#87699C"/>
<path d="M225.001 26V26.1C224.801 26.3 224.601 26.5 224.301 26.7C224.401 26.5 224.701 26.2 225.001 26Z" fill="#EEEAF1"/>
</svg>
