<svg width="50" height="50" viewBox="0 0 50 50" fill="none" xmlns="http://www.w3.org/2000/svg">
<circle cx="25" cy="25" r="24" fill="#5EBBD3" stroke="#E1FCFF" stroke-width="2"/>
<path d="M15.6956 24.2925C15.2856 24.5284 14.8873 24.6483 14.4502 24.6212C13.5259 24.5632 12.8916 24.0953 12.617 23.2753C12.3347 22.4206 12.5668 21.562 13.2745 20.9974C14.2027 20.2587 15.1464 19.5432 16.0862 18.82C16.2602 18.6846 16.4304 18.5493 16.6083 18.4216C16.8481 18.2515 17.1149 18.2437 17.3315 18.3907C17.5906 18.5647 17.6719 18.8703 17.5056 19.1333C17.4166 19.2763 17.289 19.404 17.1536 19.5123C16.121 20.3167 15.0806 21.1095 14.048 21.914C13.5684 22.2891 13.5994 22.993 14.0906 23.314C14.3922 23.5113 14.7635 23.4881 15.1 23.2328C15.8271 22.6797 16.5541 22.119 17.2774 21.562C19.6907 19.7018 22.1079 17.8454 24.5251 15.989C24.8963 15.7028 25.1091 15.7105 25.4958 16.0083C28.4003 18.2437 31.3048 20.4791 34.2131 22.7146C34.4413 22.8925 34.6734 23.0665 34.9093 23.2367C35.327 23.5422 35.8259 23.4842 36.1082 23.1052C36.4099 22.703 36.3441 22.2195 35.9303 21.8946C35.2844 21.388 34.6347 20.893 33.985 20.3941C31.2158 18.2669 28.4467 16.1398 25.6776 14.0127C25.1439 13.6027 24.8538 13.6027 24.3123 14.0166C23.1714 14.8906 22.0344 15.7647 20.8935 16.6426C20.731 16.7663 20.557 16.8669 20.3443 16.8244C20.1045 16.7779 19.9266 16.6426 19.8647 16.4028C19.7912 16.1205 19.9189 15.8962 20.1316 15.7221C20.6228 15.3354 21.1178 14.9525 21.6128 14.5735C22.2819 14.0591 22.951 13.5447 23.6201 13.0303C24.5328 12.3265 25.4494 12.3226 26.366 13.0226C27.5804 13.9508 28.787 14.8829 29.9976 15.8149C30.0517 15.8575 30.1097 15.8923 30.2025 15.958C30.2025 15.8536 30.2025 15.784 30.2025 15.7183C30.2025 14.9061 30.2025 14.0939 30.2025 13.2817C30.2025 12.7132 30.4037 12.5121 30.9683 12.5121C31.8192 12.5121 32.67 12.5121 33.5209 12.5121C34.1049 12.5121 34.3021 12.7055 34.3021 13.2856C34.3021 15.142 34.306 16.9984 34.2982 18.8548C34.2982 19.0482 34.3601 19.1758 34.5148 19.2918C35.2574 19.8565 36.0038 20.4211 36.7309 21.0051C37.5663 21.6742 37.7364 22.7919 37.164 23.6969C36.611 24.571 35.4933 24.8804 34.5457 24.4279C34.4761 24.393 34.4104 24.3621 34.3137 24.3118C34.3098 24.3969 34.3021 24.4665 34.3021 24.5323C34.3021 25.8356 34.3021 27.1351 34.3021 28.4385C34.3021 31.0761 34.3021 33.7099 34.3021 36.3475C34.3021 37.0591 33.8573 37.5 33.1418 37.5C27.7273 37.5 22.3129 37.5 16.8984 37.5C16.1287 37.5 15.6994 37.0746 15.6994 36.3088C15.6994 32.4026 15.6994 28.4965 15.6994 24.5903C15.6956 24.4975 15.6956 24.4163 15.6956 24.2925ZM24.9892 36.2933C27.4179 36.2933 29.8467 36.2933 32.2794 36.2933C32.8286 36.2933 33.1032 36.0226 33.1032 35.4773C33.1032 31.5402 33.1032 27.6031 33.107 23.6621C33.107 23.4532 33.0452 23.3179 32.8789 23.1903C30.307 21.2178 27.739 19.2415 25.1748 17.2614C25.0394 17.157 24.9544 17.1686 24.8267 17.2652C22.2587 19.2454 19.6907 21.2178 17.1188 23.1903C16.9602 23.3102 16.8906 23.4416 16.8945 23.6428C16.8984 27.5876 16.8984 31.5324 16.8984 35.4773C16.8984 36.0226 17.1729 36.2933 17.7221 36.2933C20.1432 36.2933 22.5642 36.2933 24.9892 36.2933ZM33.0761 18.1741C33.0761 16.6658 33.0761 15.2 33.0761 13.7149C32.5772 13.7149 32.0899 13.7226 31.6026 13.711C31.4401 13.7072 31.3976 13.7574 31.3976 13.916C31.4053 14.732 31.4208 15.5519 31.3937 16.368C31.3821 16.7431 31.4827 16.9907 31.7998 17.1995C32.2291 17.4934 32.6313 17.8338 33.0761 18.1741Z" fill="#E1FCFF"/>
<path d="M18.7084 16.9562C19.0449 16.9562 19.3079 17.2114 19.3118 17.5479C19.3156 17.8882 19.0604 18.1512 18.7239 18.1551C18.3758 18.159 18.109 17.8998 18.1128 17.5556C18.1128 17.2153 18.372 16.9562 18.7084 16.9562Z" fill="#E1FCFF"/>
<path d="M21.4189 28.0364C21.4189 27.3673 21.4189 26.6944 21.4189 26.0253C21.4227 25.0932 22.1073 24.3932 23.0355 24.3893C24.3891 24.3816 25.7427 24.3816 27.0964 24.3893C28.0168 24.3932 28.7091 25.0932 28.713 26.0098C28.7168 27.0734 28.713 28.137 28.713 29.2005C28.713 29.595 28.4693 29.8619 28.1174 29.8696C27.7577 29.8735 27.5063 29.5989 27.5063 29.1966C27.5063 28.164 27.5063 27.1353 27.5063 26.1026C27.5063 25.743 27.3671 25.6037 26.9997 25.6037C25.7118 25.6037 24.42 25.6037 23.1322 25.6037C22.7493 25.6037 22.6255 25.7314 22.6255 26.1142C22.6255 27.4099 22.6255 28.7055 22.6255 30.0011C22.6255 30.3569 22.7609 30.4884 23.1167 30.4884C24.1996 30.4884 25.2825 30.4845 26.3654 30.4884C26.8334 30.4884 27.1312 30.9061 26.9571 31.316C26.8604 31.552 26.6787 31.6873 26.4195 31.6912C25.2516 31.695 24.0874 31.7028 22.9195 31.6912C22.0918 31.6834 21.415 30.9602 21.4111 30.1094C21.415 29.4171 21.4189 28.7248 21.4189 28.0364Z" fill="#E1FCFF"/>
<path d="M28.7127 31.0956C28.7089 31.4282 28.442 31.6912 28.1094 31.6912C27.7729 31.6912 27.5022 31.4128 27.5099 31.0724C27.5177 30.7437 27.7923 30.4807 28.1249 30.4884C28.4575 30.4923 28.7166 30.763 28.7127 31.0956Z" fill="#E1FCFF"/>
</svg>
