<svg width="50" height="50" viewBox="0 0 50 50" fill="none" xmlns="http://www.w3.org/2000/svg">
<circle cx="25" cy="25" r="24.5" fill="#69DA75" stroke="white"/>
<path d="M16.3651 15C15.2074 15 14.0971 15.4636 13.2785 16.2887C12.4599 17.1139 12 18.233 12 19.4V28.2C12 29.367 12.4599 30.4861 13.2785 31.3113C14.0971 32.1364 15.2074 32.6 16.3651 32.6H33.8254C34.9831 32.6 36.0934 32.1364 36.912 31.3113C37.7306 30.4861 38.1905 29.367 38.1905 28.2V19.4C38.1905 18.233 37.7306 17.1139 36.912 16.2887C36.0934 15.4636 34.9831 15 33.8254 15H16.3651ZM14.1825 19.4C14.1825 18.8165 14.4125 18.2569 14.8218 17.8444C15.2311 17.4318 15.7862 17.2 16.3651 17.2H33.8254C34.4042 17.2 34.9594 17.4318 35.3687 17.8444C35.778 18.2569 36.0079 18.8165 36.0079 19.4V28.2C36.0079 28.7835 35.778 29.3431 35.3687 29.7556C34.9594 30.1682 34.4042 30.4 33.8254 30.4H16.3651C15.7862 30.4 15.2311 30.1682 14.8218 29.7556C14.4125 29.3431 14.1825 28.7835 14.1825 28.2V19.4ZM17.4563 34.8C17.1669 34.8 16.8894 34.9159 16.6847 35.1222C16.4801 35.3285 16.3651 35.6083 16.3651 35.9C16.3651 36.1917 16.4801 36.4715 16.6847 36.6778C16.8894 36.8841 17.1669 37 17.4563 37H32.7341C33.0235 37 33.3011 36.8841 33.5058 36.6778C33.7104 36.4715 33.8254 36.1917 33.8254 35.9C33.8254 35.6083 33.7104 35.3285 33.5058 35.1222C33.3011 34.9159 33.0235 34.8 32.7341 34.8H17.4563Z" fill="white"/>
</svg>
