<svg width="50" height="50" viewBox="0 0 50 50" fill="none" xmlns="http://www.w3.org/2000/svg">
<circle cx="25" cy="25" r="24" fill="#AA5AEE" stroke="#F4E9FF" stroke-width="2"/>
<path d="M28.673 42.1027C28.919 42.1027 29.1185 41.9032 29.1185 41.6572C29.1185 41.4111 28.919 41.2116 28.673 41.2116C28.4269 41.2116 28.2274 41.4111 28.2274 41.6572C28.2274 41.9032 28.4269 42.1027 28.673 42.1027Z" fill="#F4E9FF" stroke="#F4E9FF" stroke-width="0.3"/>
<mask id="path-3-outside-1" maskUnits="userSpaceOnUse" x="11" y="7" width="27" height="36" fill="black">
<rect fill="white" x="11" y="7" width="27" height="36"/>
<path d="M36.6054 19.9413C36.3335 19.7048 36.0616 19.4684 35.8015 19.2201C35.3405 18.8064 34.8676 18.369 34.3593 18.0025C33.4727 17.3524 33.2008 16.7731 33.4254 15.9338C33.4727 15.7683 33.4491 15.591 33.4372 15.4255C33.4372 15.3782 33.4254 15.3073 33.4254 15.26V15.2482C33.4845 15.2009 33.5318 15.1536 33.5791 15.0945C34.0874 14.5152 34.0047 13.7587 33.9456 13.3331C33.7682 11.7963 32.8462 10.5078 31.333 9.70392C30.3164 9.16013 29.2052 8.80549 28.1176 8.46267C27.692 8.32081 27.2547 8.19078 26.8291 8.0371C26.6518 7.97799 26.4626 8.00163 26.3089 8.02528C26.2853 8.02528 26.2617 8.0371 26.238 8.0371C25.6115 8.11985 24.9849 8.21442 24.3466 8.29717C23.4009 8.4272 22.4079 8.56906 21.4503 8.68727C20.5401 8.80549 19.5944 8.98281 18.8023 9.69209C18.5068 9.95216 18.1876 10.1886 17.8685 10.425C17.5493 10.6614 17.2183 10.9097 16.8991 11.1816C16.8518 11.2289 16.8045 11.2762 16.7454 11.3116C16.3198 11.6899 15.8233 12.1155 15.646 12.6593C15.0313 14.4207 14.4875 16.2648 14.0265 18.1562C13.9556 18.4518 13.9083 18.7591 13.861 19.0428C13.7546 19.6694 13.66 20.2723 13.3172 20.8279C12.8916 21.5135 12.6552 22.2937 12.4188 23.0503L12.3951 23.1212C12.2296 23.665 12.1114 24.2679 12.0523 24.9772C11.9577 26.112 11.8041 27.838 13.4945 28.8073C13.5655 28.8428 13.6364 28.9373 13.7073 29.0201C13.7546 29.0792 13.8137 29.1501 13.8728 29.2092C13.8846 29.2211 13.8846 29.2211 13.8965 29.2329C14.0501 29.3747 14.2629 29.422 14.4639 29.3629C14.5466 29.3393 14.6176 29.292 14.6885 29.2447C14.7476 29.292 14.8067 29.3393 14.8895 29.3629C14.9604 29.3984 15.0431 29.4457 15.1377 29.493C15.4451 29.6703 15.7761 29.8476 16.0716 29.7176C16.4499 29.5521 16.6745 29.6703 17.0646 29.8831C17.2301 29.9776 17.3956 30.0722 17.5966 30.1313C17.6084 30.1431 17.6202 30.1431 17.632 30.155L18.1285 30.3677C18.164 30.3796 18.1995 30.3914 18.2349 30.3914C18.5186 30.3914 18.8023 30.3559 19.0624 30.3204C19.5826 30.2495 20.0318 30.1786 20.4573 30.4268C20.6701 30.9588 20.9893 32.2355 20.4573 32.9212C19.9372 33.595 18.8142 33.9142 17.963 34.056C16.1425 34.3634 14.5821 35.5337 13.7782 37.1769C13.7782 37.1887 13.7664 37.1887 13.7664 37.2005C13.7664 37.2005 13.7664 37.2123 13.7546 37.2123C13.3172 38.1108 12.9507 39.021 12.6552 39.8012C12.6434 39.8367 12.6316 39.8721 12.6316 39.9076C12.6316 39.9431 12.6434 39.9904 12.6552 40.0258C12.7734 40.2977 13.1517 40.5933 15.1377 40.9715C16.4499 41.2198 18.1876 41.4444 20.1736 41.6335C22.136 41.8109 24.5594 41.9645 26.8882 42C27.03 42 27.1601 41.9173 27.2074 41.7872C27.2074 41.7872 27.2074 41.7872 27.2074 41.7754C27.2074 41.7636 27.2074 41.7636 27.2074 41.7518C27.2074 41.7399 27.2074 41.7399 27.2074 41.7281C27.2074 41.7163 27.2074 41.7045 27.2074 41.6926C27.2074 41.5153 27.0537 41.4208 27.0537 41.4208C25.2923 41.3971 23.4482 41.3144 21.805 41.1843C16.6981 40.806 13.8019 40.1913 13.2463 39.8485C13.5182 39.1274 13.861 38.2999 14.2511 37.496C14.2511 37.4842 14.2629 37.4842 14.2629 37.4724V37.4606C14.984 35.9829 16.3908 34.9308 18.0221 34.6589C19.4052 34.4225 20.3628 33.9614 20.8829 33.2994C21.5213 32.4719 21.273 31.2425 21.0839 30.5805C23.9919 30.0486 23.7437 26.3485 23.5427 23.3576C23.4245 21.5844 23.2945 19.7403 24.0156 19.6339C28.3422 18.9837 31.534 16.7968 32.8462 15.7565C32.8462 15.7801 32.8462 15.7919 32.8462 15.8038C32.4797 17.1987 33.2717 17.9789 34.0047 18.5109C34.4894 18.8655 34.9504 19.2793 35.3996 19.693C35.6715 19.9294 35.9434 20.1895 36.2271 20.4259C36.3217 20.5087 36.3453 20.556 36.3453 20.5796C36.3453 20.6033 36.3217 20.6505 36.2389 20.7215C36.0261 20.9106 35.7897 21.0643 35.5769 21.1943C34.9149 21.5844 34.6667 22.1991 34.8913 22.8966C34.9977 23.2158 34.9504 23.3222 34.6312 23.464C34.4302 23.5586 34.2293 23.8187 34.2293 24.0787C34.2411 24.3388 34.4775 24.5516 34.643 24.6344C34.7849 24.7053 34.8676 24.7644 34.9149 24.8117C34.9622 24.8471 34.9622 24.8708 34.9622 24.8708C34.9622 24.8708 34.9622 24.9535 34.714 25.19C34.3357 25.5446 33.9574 26.0647 34.383 26.8331C34.5248 27.0932 34.5603 27.3178 34.4894 27.4951C34.383 27.7434 34.0638 27.8852 33.8155 27.9562C32.6689 28.2872 31.5458 28.6182 30.4819 28.9373C29.8908 29.1147 29.4416 29.4457 29.1343 29.9185C28.8151 30.2968 28.6496 30.9352 28.6023 31.1952C28.5905 31.2662 28.5786 31.3134 28.5786 31.3134C28.5432 31.5735 28.5314 31.9991 28.7441 32.5074C29.1697 33.5122 30.2455 34.3752 31.9478 35.0963C31.9478 35.0963 31.9478 35.0963 31.9596 35.1081C31.9714 35.1081 31.9832 35.1199 31.995 35.1199C32.1014 35.1672 32.3851 35.3209 32.6098 35.6164C32.6098 35.6164 32.6098 35.6164 32.6098 35.6283C32.6334 35.6519 32.6452 35.6755 32.6689 35.711C33.1062 36.4085 34.182 38.2408 34.5839 40.3332C34.5839 40.3568 34.5839 40.3805 34.5839 40.4159C34.5721 40.4987 34.4302 40.7706 33.4018 41.0306C32.5979 41.2316 31.5104 41.3498 30.2573 41.4089C30.2573 41.4089 30.2455 41.4208 30.2336 41.4326C30.0681 41.6572 30.2455 42 30.541 41.9764C30.9429 41.9527 31.3212 41.9291 31.6995 41.8818C33.9337 41.6572 35.045 41.2198 35.175 40.5105C35.1986 40.4041 35.1986 40.3095 35.175 40.2031C34.7612 38.0162 33.6382 36.1011 33.1772 35.38C33.0944 35.2382 32.988 35.1081 32.8816 34.9781C32.8816 34.9781 32.5034 34.588 31.9596 34.3161C29.5953 33.2522 29.2643 32.1409 29.2643 31.609C29.2643 31.609 29.2406 31.3489 29.3116 31.0179C29.347 30.8642 29.3943 30.6987 29.4771 30.5332C29.7135 30.0013 30.1036 29.6585 30.6592 29.493C31.7231 29.162 32.8462 28.8428 33.981 28.5118C34.6549 28.3226 34.9267 27.968 35.0331 27.7079C35.1277 27.4715 35.1868 27.0696 34.9031 26.5376C34.7021 26.1711 34.7612 25.9465 35.1159 25.6037C35.3523 25.3791 35.5887 25.1072 35.5415 24.7762C35.4942 24.4452 35.1986 24.2561 34.9031 24.1024C34.8795 24.0906 34.844 24.0551 34.8204 24.0315C34.8322 24.0078 34.844 23.996 34.8558 23.996C35.4469 23.7359 35.636 23.3222 35.4351 22.7075C35.2932 22.2819 35.4351 21.9509 35.8606 21.7026C36.0971 21.5608 36.3808 21.3835 36.629 21.1589C36.83 20.9697 36.9246 20.7806 36.9246 20.5678C36.9246 20.3195 36.8182 20.1186 36.6054 19.9413ZM23.9447 19.0192C22.6916 19.2083 22.8216 21.1352 22.9753 23.3695C23.1763 26.313 23.4009 29.6466 20.8711 29.9895C20.8593 29.9776 20.8474 29.9658 20.8238 29.954C20.1973 29.5402 19.5353 29.6348 18.956 29.7176C18.7196 29.753 18.495 29.7885 18.2822 29.7885L17.9039 29.6348C17.8803 29.6112 17.8448 29.5993 17.8093 29.5875C17.6557 29.5402 17.502 29.4575 17.3365 29.3629C16.9582 29.1501 16.4853 28.8782 15.8352 29.162C15.7524 29.162 15.5278 29.0319 15.4096 28.9728C15.315 28.9255 15.2205 28.8664 15.1259 28.8191C15.0786 28.7955 15.0195 28.7482 14.9367 28.6773C14.8895 28.63 14.8304 28.5827 14.7712 28.5354C14.6885 28.4763 14.5703 28.4527 14.4757 28.4881C14.3811 28.5236 14.3102 28.6182 14.2984 28.7246C14.2984 28.7482 14.2866 28.76 14.2984 28.7837L14.2866 28.7718C14.2511 28.7364 14.2038 28.6773 14.1684 28.63C14.062 28.5118 13.9556 28.3699 13.7901 28.2753C12.5252 27.5542 12.5252 26.3721 12.6434 25.0126C12.7025 24.3388 12.8089 23.7714 12.9626 23.2749L12.9862 23.204C13.2108 22.4829 13.4472 21.7381 13.8255 21.1116C14.2275 20.4614 14.3457 19.7758 14.4521 19.1138C14.4994 18.8182 14.5466 18.5463 14.6176 18.2744C15.0786 16.4067 15.6224 14.5743 16.2253 12.8366C16.3671 12.4465 16.7691 12.0918 17.1592 11.7372C17.2065 11.6899 17.2656 11.6426 17.3128 11.6072C17.5966 11.3471 17.9157 11.1107 18.2349 10.8861C18.5659 10.6496 18.9087 10.4014 19.2161 10.1177C19.8899 9.51477 20.7056 9.37292 21.5567 9.2547C22.5261 9.12467 23.5073 8.99463 24.4648 8.8646C25.0913 8.78185 25.7179 8.68727 26.3562 8.60452C26.3799 8.60452 26.4153 8.5927 26.439 8.5927C26.5099 8.58088 26.6281 8.56906 26.6754 8.58088C27.1128 8.73456 27.5502 8.87642 27.9758 9.01827C29.0279 9.36109 30.1273 9.70391 31.0966 10.2241C32.4324 10.9333 33.2481 12.0564 33.4018 13.3922C33.4609 13.9123 33.4845 14.4561 33.0353 14.8226C33.0117 14.8462 32.988 14.8699 32.9644 14.8935C32.1251 15.591 28.6969 18.3099 23.9447 19.0192Z"/>
</mask>
<path d="M36.6054 19.9413C36.3335 19.7048 36.0616 19.4684 35.8015 19.2201C35.3405 18.8064 34.8676 18.369 34.3593 18.0025C33.4727 17.3524 33.2008 16.7731 33.4254 15.9338C33.4727 15.7683 33.4491 15.591 33.4372 15.4255C33.4372 15.3782 33.4254 15.3073 33.4254 15.26V15.2482C33.4845 15.2009 33.5318 15.1536 33.5791 15.0945C34.0874 14.5152 34.0047 13.7587 33.9456 13.3331C33.7682 11.7963 32.8462 10.5078 31.333 9.70392C30.3164 9.16013 29.2052 8.80549 28.1176 8.46267C27.692 8.32081 27.2547 8.19078 26.8291 8.0371C26.6518 7.97799 26.4626 8.00163 26.3089 8.02528C26.2853 8.02528 26.2617 8.0371 26.238 8.0371C25.6115 8.11985 24.9849 8.21442 24.3466 8.29717C23.4009 8.4272 22.4079 8.56906 21.4503 8.68727C20.5401 8.80549 19.5944 8.98281 18.8023 9.69209C18.5068 9.95216 18.1876 10.1886 17.8685 10.425C17.5493 10.6614 17.2183 10.9097 16.8991 11.1816C16.8518 11.2289 16.8045 11.2762 16.7454 11.3116C16.3198 11.6899 15.8233 12.1155 15.646 12.6593C15.0313 14.4207 14.4875 16.2648 14.0265 18.1562C13.9556 18.4518 13.9083 18.7591 13.861 19.0428C13.7546 19.6694 13.66 20.2723 13.3172 20.8279C12.8916 21.5135 12.6552 22.2937 12.4188 23.0503L12.3951 23.1212C12.2296 23.665 12.1114 24.2679 12.0523 24.9772C11.9577 26.112 11.8041 27.838 13.4945 28.8073C13.5655 28.8428 13.6364 28.9373 13.7073 29.0201C13.7546 29.0792 13.8137 29.1501 13.8728 29.2092C13.8846 29.2211 13.8846 29.2211 13.8965 29.2329C14.0501 29.3747 14.2629 29.422 14.4639 29.3629C14.5466 29.3393 14.6176 29.292 14.6885 29.2447C14.7476 29.292 14.8067 29.3393 14.8895 29.3629C14.9604 29.3984 15.0431 29.4457 15.1377 29.493C15.4451 29.6703 15.7761 29.8476 16.0716 29.7176C16.4499 29.5521 16.6745 29.6703 17.0646 29.8831C17.2301 29.9776 17.3956 30.0722 17.5966 30.1313C17.6084 30.1431 17.6202 30.1431 17.632 30.155L18.1285 30.3677C18.164 30.3796 18.1995 30.3914 18.2349 30.3914C18.5186 30.3914 18.8023 30.3559 19.0624 30.3204C19.5826 30.2495 20.0318 30.1786 20.4573 30.4268C20.6701 30.9588 20.9893 32.2355 20.4573 32.9212C19.9372 33.595 18.8142 33.9142 17.963 34.056C16.1425 34.3634 14.5821 35.5337 13.7782 37.1769C13.7782 37.1887 13.7664 37.1887 13.7664 37.2005C13.7664 37.2005 13.7664 37.2123 13.7546 37.2123C13.3172 38.1108 12.9507 39.021 12.6552 39.8012C12.6434 39.8367 12.6316 39.8721 12.6316 39.9076C12.6316 39.9431 12.6434 39.9904 12.6552 40.0258C12.7734 40.2977 13.1517 40.5933 15.1377 40.9715C16.4499 41.2198 18.1876 41.4444 20.1736 41.6335C22.136 41.8109 24.5594 41.9645 26.8882 42C27.03 42 27.1601 41.9173 27.2074 41.7872C27.2074 41.7872 27.2074 41.7872 27.2074 41.7754C27.2074 41.7636 27.2074 41.7636 27.2074 41.7518C27.2074 41.7399 27.2074 41.7399 27.2074 41.7281C27.2074 41.7163 27.2074 41.7045 27.2074 41.6926C27.2074 41.5153 27.0537 41.4208 27.0537 41.4208C25.2923 41.3971 23.4482 41.3144 21.805 41.1843C16.6981 40.806 13.8019 40.1913 13.2463 39.8485C13.5182 39.1274 13.861 38.2999 14.2511 37.496C14.2511 37.4842 14.2629 37.4842 14.2629 37.4724V37.4606C14.984 35.9829 16.3908 34.9308 18.0221 34.6589C19.4052 34.4225 20.3628 33.9614 20.8829 33.2994C21.5213 32.4719 21.273 31.2425 21.0839 30.5805C23.9919 30.0486 23.7437 26.3485 23.5427 23.3576C23.4245 21.5844 23.2945 19.7403 24.0156 19.6339C28.3422 18.9837 31.534 16.7968 32.8462 15.7565C32.8462 15.7801 32.8462 15.7919 32.8462 15.8038C32.4797 17.1987 33.2717 17.9789 34.0047 18.5109C34.4894 18.8655 34.9504 19.2793 35.3996 19.693C35.6715 19.9294 35.9434 20.1895 36.2271 20.4259C36.3217 20.5087 36.3453 20.556 36.3453 20.5796C36.3453 20.6033 36.3217 20.6505 36.2389 20.7215C36.0261 20.9106 35.7897 21.0643 35.5769 21.1943C34.9149 21.5844 34.6667 22.1991 34.8913 22.8966C34.9977 23.2158 34.9504 23.3222 34.6312 23.464C34.4302 23.5586 34.2293 23.8187 34.2293 24.0787C34.2411 24.3388 34.4775 24.5516 34.643 24.6344C34.7849 24.7053 34.8676 24.7644 34.9149 24.8117C34.9622 24.8471 34.9622 24.8708 34.9622 24.8708C34.9622 24.8708 34.9622 24.9535 34.714 25.19C34.3357 25.5446 33.9574 26.0647 34.383 26.8331C34.5248 27.0932 34.5603 27.3178 34.4894 27.4951C34.383 27.7434 34.0638 27.8852 33.8155 27.9562C32.6689 28.2872 31.5458 28.6182 30.4819 28.9373C29.8908 29.1147 29.4416 29.4457 29.1343 29.9185C28.8151 30.2968 28.6496 30.9352 28.6023 31.1952C28.5905 31.2662 28.5786 31.3134 28.5786 31.3134C28.5432 31.5735 28.5314 31.9991 28.7441 32.5074C29.1697 33.5122 30.2455 34.3752 31.9478 35.0963C31.9478 35.0963 31.9478 35.0963 31.9596 35.1081C31.9714 35.1081 31.9832 35.1199 31.995 35.1199C32.1014 35.1672 32.3851 35.3209 32.6098 35.6164C32.6098 35.6164 32.6098 35.6164 32.6098 35.6283C32.6334 35.6519 32.6452 35.6755 32.6689 35.711C33.1062 36.4085 34.182 38.2408 34.5839 40.3332C34.5839 40.3568 34.5839 40.3805 34.5839 40.4159C34.5721 40.4987 34.4302 40.7706 33.4018 41.0306C32.5979 41.2316 31.5104 41.3498 30.2573 41.4089C30.2573 41.4089 30.2455 41.4208 30.2336 41.4326C30.0681 41.6572 30.2455 42 30.541 41.9764C30.9429 41.9527 31.3212 41.9291 31.6995 41.8818C33.9337 41.6572 35.045 41.2198 35.175 40.5105C35.1986 40.4041 35.1986 40.3095 35.175 40.2031C34.7612 38.0162 33.6382 36.1011 33.1772 35.38C33.0944 35.2382 32.988 35.1081 32.8816 34.9781C32.8816 34.9781 32.5034 34.588 31.9596 34.3161C29.5953 33.2522 29.2643 32.1409 29.2643 31.609C29.2643 31.609 29.2406 31.3489 29.3116 31.0179C29.347 30.8642 29.3943 30.6987 29.4771 30.5332C29.7135 30.0013 30.1036 29.6585 30.6592 29.493C31.7231 29.162 32.8462 28.8428 33.981 28.5118C34.6549 28.3226 34.9267 27.968 35.0331 27.7079C35.1277 27.4715 35.1868 27.0696 34.9031 26.5376C34.7021 26.1711 34.7612 25.9465 35.1159 25.6037C35.3523 25.3791 35.5887 25.1072 35.5415 24.7762C35.4942 24.4452 35.1986 24.2561 34.9031 24.1024C34.8795 24.0906 34.844 24.0551 34.8204 24.0315C34.8322 24.0078 34.844 23.996 34.8558 23.996C35.4469 23.7359 35.636 23.3222 35.4351 22.7075C35.2932 22.2819 35.4351 21.9509 35.8606 21.7026C36.0971 21.5608 36.3808 21.3835 36.629 21.1589C36.83 20.9697 36.9246 20.7806 36.9246 20.5678C36.9246 20.3195 36.8182 20.1186 36.6054 19.9413ZM23.9447 19.0192C22.6916 19.2083 22.8216 21.1352 22.9753 23.3695C23.1763 26.313 23.4009 29.6466 20.8711 29.9895C20.8593 29.9776 20.8474 29.9658 20.8238 29.954C20.1973 29.5402 19.5353 29.6348 18.956 29.7176C18.7196 29.753 18.495 29.7885 18.2822 29.7885L17.9039 29.6348C17.8803 29.6112 17.8448 29.5993 17.8093 29.5875C17.6557 29.5402 17.502 29.4575 17.3365 29.3629C16.9582 29.1501 16.4853 28.8782 15.8352 29.162C15.7524 29.162 15.5278 29.0319 15.4096 28.9728C15.315 28.9255 15.2205 28.8664 15.1259 28.8191C15.0786 28.7955 15.0195 28.7482 14.9367 28.6773C14.8895 28.63 14.8304 28.5827 14.7712 28.5354C14.6885 28.4763 14.5703 28.4527 14.4757 28.4881C14.3811 28.5236 14.3102 28.6182 14.2984 28.7246C14.2984 28.7482 14.2866 28.76 14.2984 28.7837L14.2866 28.7718C14.2511 28.7364 14.2038 28.6773 14.1684 28.63C14.062 28.5118 13.9556 28.3699 13.7901 28.2753C12.5252 27.5542 12.5252 26.3721 12.6434 25.0126C12.7025 24.3388 12.8089 23.7714 12.9626 23.2749L12.9862 23.204C13.2108 22.4829 13.4472 21.7381 13.8255 21.1116C14.2275 20.4614 14.3457 19.7758 14.4521 19.1138C14.4994 18.8182 14.5466 18.5463 14.6176 18.2744C15.0786 16.4067 15.6224 14.5743 16.2253 12.8366C16.3671 12.4465 16.7691 12.0918 17.1592 11.7372C17.2065 11.6899 17.2656 11.6426 17.3128 11.6072C17.5966 11.3471 17.9157 11.1107 18.2349 10.8861C18.5659 10.6496 18.9087 10.4014 19.2161 10.1177C19.8899 9.51477 20.7056 9.37292 21.5567 9.2547C22.5261 9.12467 23.5073 8.99463 24.4648 8.8646C25.0913 8.78185 25.7179 8.68727 26.3562 8.60452C26.3799 8.60452 26.4153 8.5927 26.439 8.5927C26.5099 8.58088 26.6281 8.56906 26.6754 8.58088C27.1128 8.73456 27.5502 8.87642 27.9758 9.01827C29.0279 9.36109 30.1273 9.70391 31.0966 10.2241C32.4324 10.9333 33.2481 12.0564 33.4018 13.3922C33.4609 13.9123 33.4845 14.4561 33.0353 14.8226C33.0117 14.8462 32.988 14.8699 32.9644 14.8935C32.1251 15.591 28.6969 18.3099 23.9447 19.0192Z" fill="#F4E9FF"/>
<path d="M36.6054 19.9413C36.3335 19.7048 36.0616 19.4684 35.8015 19.2201C35.3405 18.8064 34.8676 18.369 34.3593 18.0025C33.4727 17.3524 33.2008 16.7731 33.4254 15.9338C33.4727 15.7683 33.4491 15.591 33.4372 15.4255C33.4372 15.3782 33.4254 15.3073 33.4254 15.26V15.2482C33.4845 15.2009 33.5318 15.1536 33.5791 15.0945C34.0874 14.5152 34.0047 13.7587 33.9456 13.3331C33.7682 11.7963 32.8462 10.5078 31.333 9.70392C30.3164 9.16013 29.2052 8.80549 28.1176 8.46267C27.692 8.32081 27.2547 8.19078 26.8291 8.0371C26.6518 7.97799 26.4626 8.00163 26.3089 8.02528C26.2853 8.02528 26.2617 8.0371 26.238 8.0371C25.6115 8.11985 24.9849 8.21442 24.3466 8.29717C23.4009 8.4272 22.4079 8.56906 21.4503 8.68727C20.5401 8.80549 19.5944 8.98281 18.8023 9.69209C18.5068 9.95216 18.1876 10.1886 17.8685 10.425C17.5493 10.6614 17.2183 10.9097 16.8991 11.1816C16.8518 11.2289 16.8045 11.2762 16.7454 11.3116C16.3198 11.6899 15.8233 12.1155 15.646 12.6593C15.0313 14.4207 14.4875 16.2648 14.0265 18.1562C13.9556 18.4518 13.9083 18.7591 13.861 19.0428C13.7546 19.6694 13.66 20.2723 13.3172 20.8279C12.8916 21.5135 12.6552 22.2937 12.4188 23.0503L12.3951 23.1212C12.2296 23.665 12.1114 24.2679 12.0523 24.9772C11.9577 26.112 11.8041 27.838 13.4945 28.8073C13.5655 28.8428 13.6364 28.9373 13.7073 29.0201C13.7546 29.0792 13.8137 29.1501 13.8728 29.2092C13.8846 29.2211 13.8846 29.2211 13.8965 29.2329C14.0501 29.3747 14.2629 29.422 14.4639 29.3629C14.5466 29.3393 14.6176 29.292 14.6885 29.2447C14.7476 29.292 14.8067 29.3393 14.8895 29.3629C14.9604 29.3984 15.0431 29.4457 15.1377 29.493C15.4451 29.6703 15.7761 29.8476 16.0716 29.7176C16.4499 29.5521 16.6745 29.6703 17.0646 29.8831C17.2301 29.9776 17.3956 30.0722 17.5966 30.1313C17.6084 30.1431 17.6202 30.1431 17.632 30.155L18.1285 30.3677C18.164 30.3796 18.1995 30.3914 18.2349 30.3914C18.5186 30.3914 18.8023 30.3559 19.0624 30.3204C19.5826 30.2495 20.0318 30.1786 20.4573 30.4268C20.6701 30.9588 20.9893 32.2355 20.4573 32.9212C19.9372 33.595 18.8142 33.9142 17.963 34.056C16.1425 34.3634 14.5821 35.5337 13.7782 37.1769C13.7782 37.1887 13.7664 37.1887 13.7664 37.2005C13.7664 37.2005 13.7664 37.2123 13.7546 37.2123C13.3172 38.1108 12.9507 39.021 12.6552 39.8012C12.6434 39.8367 12.6316 39.8721 12.6316 39.9076C12.6316 39.9431 12.6434 39.9904 12.6552 40.0258C12.7734 40.2977 13.1517 40.5933 15.1377 40.9715C16.4499 41.2198 18.1876 41.4444 20.1736 41.6335C22.136 41.8109 24.5594 41.9645 26.8882 42C27.03 42 27.1601 41.9173 27.2074 41.7872C27.2074 41.7872 27.2074 41.7872 27.2074 41.7754C27.2074 41.7636 27.2074 41.7636 27.2074 41.7518C27.2074 41.7399 27.2074 41.7399 27.2074 41.7281C27.2074 41.7163 27.2074 41.7045 27.2074 41.6926C27.2074 41.5153 27.0537 41.4208 27.0537 41.4208C25.2923 41.3971 23.4482 41.3144 21.805 41.1843C16.6981 40.806 13.8019 40.1913 13.2463 39.8485C13.5182 39.1274 13.861 38.2999 14.2511 37.496C14.2511 37.4842 14.2629 37.4842 14.2629 37.4724V37.4606C14.984 35.9829 16.3908 34.9308 18.0221 34.6589C19.4052 34.4225 20.3628 33.9614 20.8829 33.2994C21.5213 32.4719 21.273 31.2425 21.0839 30.5805C23.9919 30.0486 23.7437 26.3485 23.5427 23.3576C23.4245 21.5844 23.2945 19.7403 24.0156 19.6339C28.3422 18.9837 31.534 16.7968 32.8462 15.7565C32.8462 15.7801 32.8462 15.7919 32.8462 15.8038C32.4797 17.1987 33.2717 17.9789 34.0047 18.5109C34.4894 18.8655 34.9504 19.2793 35.3996 19.693C35.6715 19.9294 35.9434 20.1895 36.2271 20.4259C36.3217 20.5087 36.3453 20.556 36.3453 20.5796C36.3453 20.6033 36.3217 20.6505 36.2389 20.7215C36.0261 20.9106 35.7897 21.0643 35.5769 21.1943C34.9149 21.5844 34.6667 22.1991 34.8913 22.8966C34.9977 23.2158 34.9504 23.3222 34.6312 23.464C34.4302 23.5586 34.2293 23.8187 34.2293 24.0787C34.2411 24.3388 34.4775 24.5516 34.643 24.6344C34.7849 24.7053 34.8676 24.7644 34.9149 24.8117C34.9622 24.8471 34.9622 24.8708 34.9622 24.8708C34.9622 24.8708 34.9622 24.9535 34.714 25.19C34.3357 25.5446 33.9574 26.0647 34.383 26.8331C34.5248 27.0932 34.5603 27.3178 34.4894 27.4951C34.383 27.7434 34.0638 27.8852 33.8155 27.9562C32.6689 28.2872 31.5458 28.6182 30.4819 28.9373C29.8908 29.1147 29.4416 29.4457 29.1343 29.9185C28.8151 30.2968 28.6496 30.9352 28.6023 31.1952C28.5905 31.2662 28.5786 31.3134 28.5786 31.3134C28.5432 31.5735 28.5314 31.9991 28.7441 32.5074C29.1697 33.5122 30.2455 34.3752 31.9478 35.0963C31.9478 35.0963 31.9478 35.0963 31.9596 35.1081C31.9714 35.1081 31.9832 35.1199 31.995 35.1199C32.1014 35.1672 32.3851 35.3209 32.6098 35.6164C32.6098 35.6164 32.6098 35.6164 32.6098 35.6283C32.6334 35.6519 32.6452 35.6755 32.6689 35.711C33.1062 36.4085 34.182 38.2408 34.5839 40.3332C34.5839 40.3568 34.5839 40.3805 34.5839 40.4159C34.5721 40.4987 34.4302 40.7706 33.4018 41.0306C32.5979 41.2316 31.5104 41.3498 30.2573 41.4089C30.2573 41.4089 30.2455 41.4208 30.2336 41.4326C30.0681 41.6572 30.2455 42 30.541 41.9764C30.9429 41.9527 31.3212 41.9291 31.6995 41.8818C33.9337 41.6572 35.045 41.2198 35.175 40.5105C35.1986 40.4041 35.1986 40.3095 35.175 40.2031C34.7612 38.0162 33.6382 36.1011 33.1772 35.38C33.0944 35.2382 32.988 35.1081 32.8816 34.9781C32.8816 34.9781 32.5034 34.588 31.9596 34.3161C29.5953 33.2522 29.2643 32.1409 29.2643 31.609C29.2643 31.609 29.2406 31.3489 29.3116 31.0179C29.347 30.8642 29.3943 30.6987 29.4771 30.5332C29.7135 30.0013 30.1036 29.6585 30.6592 29.493C31.7231 29.162 32.8462 28.8428 33.981 28.5118C34.6549 28.3226 34.9267 27.968 35.0331 27.7079C35.1277 27.4715 35.1868 27.0696 34.9031 26.5376C34.7021 26.1711 34.7612 25.9465 35.1159 25.6037C35.3523 25.3791 35.5887 25.1072 35.5415 24.7762C35.4942 24.4452 35.1986 24.2561 34.9031 24.1024C34.8795 24.0906 34.844 24.0551 34.8204 24.0315C34.8322 24.0078 34.844 23.996 34.8558 23.996C35.4469 23.7359 35.636 23.3222 35.4351 22.7075C35.2932 22.2819 35.4351 21.9509 35.8606 21.7026C36.0971 21.5608 36.3808 21.3835 36.629 21.1589C36.83 20.9697 36.9246 20.7806 36.9246 20.5678C36.9246 20.3195 36.8182 20.1186 36.6054 19.9413ZM23.9447 19.0192C22.6916 19.2083 22.8216 21.1352 22.9753 23.3695C23.1763 26.313 23.4009 29.6466 20.8711 29.9895C20.8593 29.9776 20.8474 29.9658 20.8238 29.954C20.1973 29.5402 19.5353 29.6348 18.956 29.7176C18.7196 29.753 18.495 29.7885 18.2822 29.7885L17.9039 29.6348C17.8803 29.6112 17.8448 29.5993 17.8093 29.5875C17.6557 29.5402 17.502 29.4575 17.3365 29.3629C16.9582 29.1501 16.4853 28.8782 15.8352 29.162C15.7524 29.162 15.5278 29.0319 15.4096 28.9728C15.315 28.9255 15.2205 28.8664 15.1259 28.8191C15.0786 28.7955 15.0195 28.7482 14.9367 28.6773C14.8895 28.63 14.8304 28.5827 14.7712 28.5354C14.6885 28.4763 14.5703 28.4527 14.4757 28.4881C14.3811 28.5236 14.3102 28.6182 14.2984 28.7246C14.2984 28.7482 14.2866 28.76 14.2984 28.7837L14.2866 28.7718C14.2511 28.7364 14.2038 28.6773 14.1684 28.63C14.062 28.5118 13.9556 28.3699 13.7901 28.2753C12.5252 27.5542 12.5252 26.3721 12.6434 25.0126C12.7025 24.3388 12.8089 23.7714 12.9626 23.2749L12.9862 23.204C13.2108 22.4829 13.4472 21.7381 13.8255 21.1116C14.2275 20.4614 14.3457 19.7758 14.4521 19.1138C14.4994 18.8182 14.5466 18.5463 14.6176 18.2744C15.0786 16.4067 15.6224 14.5743 16.2253 12.8366C16.3671 12.4465 16.7691 12.0918 17.1592 11.7372C17.2065 11.6899 17.2656 11.6426 17.3128 11.6072C17.5966 11.3471 17.9157 11.1107 18.2349 10.8861C18.5659 10.6496 18.9087 10.4014 19.2161 10.1177C19.8899 9.51477 20.7056 9.37292 21.5567 9.2547C22.5261 9.12467 23.5073 8.99463 24.4648 8.8646C25.0913 8.78185 25.7179 8.68727 26.3562 8.60452C26.3799 8.60452 26.4153 8.5927 26.439 8.5927C26.5099 8.58088 26.6281 8.56906 26.6754 8.58088C27.1128 8.73456 27.5502 8.87642 27.9758 9.01827C29.0279 9.36109 30.1273 9.70391 31.0966 10.2241C32.4324 10.9333 33.2481 12.0564 33.4018 13.3922C33.4609 13.9123 33.4845 14.4561 33.0353 14.8226C33.0117 14.8462 32.988 14.8699 32.9644 14.8935C32.1251 15.591 28.6969 18.3099 23.9447 19.0192Z" stroke="#F4E9FF" stroke-width="0.6" mask="url(#path-3-outside-1)"/>
</svg>
