<svg width="27" height="47" viewBox="0 0 27 47" fill="none" xmlns="http://www.w3.org/2000/svg">
<path d="M2.8012 5.40003C2.8012 5.02872 2.66424 4.67262 2.42044 4.41007C2.17664 4.14752 1.84597 4.00002 1.50119 4.00002C1.1564 4.00002 0.825738 4.14752 0.581938 4.41007C0.338138 4.67262 0.201172 5.02872 0.201172 5.40003L0.201172 9.20011C0.201172 10.314 0.612068 11.3823 1.34347 12.17C2.07487 12.9577 3.06686 13.4002 4.10122 13.4002H4.64722L0.851179 22.0243C0.397829 23.0551 0.185243 24.1896 0.231917 25.3291C0.278591 26.4686 0.583112 27.5785 1.11898 28.5623L10.1229 45.1021C10.4379 45.68 10.8877 46.1591 11.4277 46.492C11.9677 46.8249 12.5791 47 13.2013 47C13.8235 47 14.4349 46.8249 14.9749 46.492C15.5149 46.1591 15.9647 45.68 16.2798 45.1021L25.2837 28.5623C25.8191 27.5783 26.1232 26.4682 26.1694 25.3287C26.2156 24.1892 26.0026 23.0548 25.5489 22.0243L21.7554 13.4002H22.3014C23.3358 13.4002 24.3278 12.9577 25.0592 12.17C25.7906 11.3823 26.2015 10.314 26.2015 9.20011V5.4C26.2015 5.02869 26.0645 4.67259 25.8207 4.41004C25.5769 4.14749 25.2462 3.99998 24.9014 3.99998C24.5567 3.99998 24.226 4.14749 23.9822 4.41004C23.7384 4.67259 23.6014 5.02869 23.6014 5.4V9.20011C23.6014 9.57142 23.4645 9.92752 23.2207 10.1901C22.9769 10.4526 22.6462 10.6001 22.3014 10.6001H4.10122C3.75643 10.6001 3.42577 10.4526 3.18197 10.1901C2.93817 9.92752 2.8012 9.57142 2.8012 9.20011L2.8012 5.40003ZM18.8798 13.4002L23.201 23.2255C23.4725 23.8436 23.5997 24.5239 23.5716 25.207C23.5436 25.8902 23.361 26.5556 23.0398 27.1455L14.5013 42.8313V27.0251C14.997 26.7169 15.3844 26.2412 15.6034 25.6717C15.8225 25.1023 15.8609 24.4709 15.7128 23.8755C15.5646 23.2801 15.2382 22.754 14.7841 22.3788C14.33 22.0036 13.7737 21.8002 13.2013 21.8002C12.629 21.8002 12.0726 22.0036 11.6185 22.3788C11.1644 22.754 10.838 23.2801 10.6899 23.8755C10.5417 24.4709 10.5802 25.1023 10.7992 25.6717C11.0182 26.2412 11.4056 26.7169 11.9013 27.0251V42.8313L3.36281 27.1483C3.04164 26.5584 2.85908 25.893 2.83099 25.2098C2.8029 24.5267 2.93012 23.8464 3.2016 23.2283L7.52285 13.4002L18.8798 13.4002Z" fill="white"/>
<path fill-rule="evenodd" clip-rule="evenodd" d="M2.42044 8.59995C2.66424 8.3374 2.8012 7.9813 2.8012 7.60999L2.8012 4.80007C2.8012 4.42876 2.93817 4.07266 3.18197 3.81011C3.42577 3.54756 3.75643 3.40005 4.10122 3.40005L22.3014 3.40005C22.6462 3.40005 22.9769 3.54756 23.2207 3.81011C23.4645 4.07266 23.6014 4.42876 23.6014 4.80007V7.61009C23.6014 7.9814 23.7384 8.33749 23.9822 8.60005C24.226 8.8626 24.5567 9.0101 24.9014 9.0101C25.2462 9.0101 25.5769 8.8626 25.8207 8.60005C26.0645 8.33749 26.2015 7.9814 26.2015 7.61009V4.80007C26.2015 3.68615 25.7906 2.61785 25.0592 1.83019C24.3278 1.04253 23.3358 0.600023 22.3014 0.600023H21.7554H18.8798L7.52285 0.600023H4.64722H4.10122C3.06686 0.600023 2.07487 1.04253 1.34347 1.83019C0.612068 2.61785 0.201172 3.68615 0.201172 4.80007L0.201172 7.60999C0.201172 7.9813 0.338138 8.3374 0.581938 8.59995C0.825738 8.86251 1.1564 9.01001 1.50119 9.01001C1.84597 9.01001 2.17664 8.86251 2.42044 8.59995Z" fill="white"/>
</svg>
