<svg width="106" height="81" viewBox="0 0 106 81" fill="none" xmlns="http://www.w3.org/2000/svg">
<path d="M105.428 20.12L105.296 19.2116L105.159 19.2441C104.22 14.7509 102.057 10.6216 98.9198 7.33401C95.7829 4.04637 91.8005 1.73475 87.4332 0.666614C83.066 -0.40152 78.4924 -0.182512 74.2418 1.2983C69.9911 2.77911 66.237 5.4612 63.4139 9.03424C60.5908 12.6073 58.8141 16.9252 58.2893 21.4885C57.7646 26.0517 58.5132 30.6738 60.4485 34.8198C62.3839 38.9658 65.4269 42.4664 69.2255 44.9165C73.0242 47.3666 77.4231 48.666 81.9133 48.6645C83.0917 48.6645 84.2225 48.4806 85.3481 48.313C84.9835 49.5674 84.6083 50.8435 84.0059 51.9899C83.4035 53.6553 82.4629 55.099 81.5276 56.5535C80.7455 58.127 79.3664 59.1922 78.3518 60.5386C77.2897 61.8471 75.8418 62.7177 74.6951 63.8045C73.5696 64.94 72.0953 65.5078 70.9222 66.308C69.6962 67.0272 68.6288 67.822 67.4874 68.2005L64.6392 69.4009L62.1345 70.4661L64.6921 80.9506L67.8468 80.172C68.856 79.9124 70.0873 79.6096 71.4876 79.2474C72.9196 78.977 74.4468 78.2362 76.1483 77.5603C77.8234 76.7871 79.7732 76.2734 81.5804 75.0352C83.3982 73.8564 85.496 72.8723 87.3455 71.2934C89.1369 69.6659 91.2981 68.2546 92.8939 66.1891C94.6377 64.2533 96.3604 62.2202 97.6973 59.9059C99.2456 57.6998 100.297 55.2774 101.407 52.882C102.411 50.4867 103.219 48.0372 103.88 45.6581C105.132 40.889 105.692 36.3578 105.909 32.4808C106.089 28.5985 105.983 25.3704 105.761 23.0345C105.687 22.059 105.576 21.0868 105.428 20.12ZM47.3017 20.12L47.1696 19.2116L47.0322 19.2441C46.0933 14.7509 43.9302 10.6216 40.7934 7.33401C37.6565 4.04637 33.6741 1.73475 29.3069 0.666614C24.9396 -0.40152 20.3661 -0.182512 16.1154 1.2983C11.8647 2.77911 8.11065 5.4612 5.28757 9.03424C2.46448 12.6073 0.687756 16.9252 0.162971 21.4885C-0.361814 26.0517 0.386787 30.6738 2.32216 34.8198C4.25753 38.9658 7.30057 42.4664 11.0992 44.9165C14.8978 47.3666 19.2967 48.666 23.787 48.6645C24.9654 48.6645 26.0962 48.4806 27.2217 48.313C26.8571 49.5674 26.4819 50.8435 25.8795 51.9899C25.2771 53.6553 24.3365 55.099 23.4012 56.5535C22.6192 58.127 21.24 59.1922 20.2254 60.5386C19.1633 61.8471 17.7154 62.7177 16.5687 63.8045C15.4432 64.94 13.9689 65.5078 12.7958 66.308C11.5699 67.0272 10.5025 67.822 9.36107 68.2005L6.51288 69.4009C4.92233 70.066 4.01345 70.4553 4.01345 70.4553L6.57101 80.9398L9.72568 80.1612C10.735 79.9016 11.9662 79.5988 13.3665 79.2365C14.7985 78.9662 16.3257 78.2254 18.0272 77.5495C19.7023 76.7763 21.6522 76.2626 23.4594 75.0244C25.2771 73.8456 27.375 72.8615 29.2244 71.2826C31.0158 69.6551 33.177 68.2438 34.7729 66.1782C36.5167 64.2425 38.2393 62.2094 39.5762 59.8951C41.1245 57.689 42.176 55.2666 43.2857 52.8712C44.2897 50.4758 45.0982 48.0264 45.7587 45.6473C47.0111 40.8781 47.5712 36.3469 47.7879 32.47C47.9675 28.5877 47.8619 25.3596 47.6399 23.0237C47.561 22.052 47.4482 21.0835 47.3017 20.12Z" fill="#694484" fill-opacity="0.1"/>
</svg>
