<svg width="512" height="512" viewBox="0 0 512 512" fill="none" xmlns="http://www.w3.org/2000/svg">
<mask id="path-1-inside-1_1401_530" fill="white">
<path d="M0 51.2C0 22.923 22.923 0 51.2 0H460.8C489.077 0 512 22.923 512 51.2V460.8C512 489.077 489.077 512 460.8 512H51.2C22.923 512 0 489.077 0 460.8V51.2Z"/>
<path d="M434.351 394.24C422.7 394.24 416.998 383.104 418.857 371.593C421.212 356.703 423.815 342.064 423.567 327.049C423.319 308.782 407.702 295.769 390.225 299.773C389.234 300.023 388.118 300.523 387.251 301.149C387.127 301.274 386.879 301.399 386.631 301.524C386.259 301.9 385.887 302.15 385.515 302.525C385.267 302.776 384.896 303.026 384.648 303.401C378.946 309.157 373.244 319.667 373.244 319.667C345.852 329.802 343.745 327.3 340.026 291.39C336.308 255.229 336.804 218.568 337.3 182.158C337.547 165.767 332.218 164.015 319.327 169.395C317.468 170.146 315.609 170.897 313.75 171.648C302.594 176.277 291.315 180.907 279.664 184.41C268.137 187.913 266.897 193.919 269.252 204.805C274.706 230.205 279.168 255.605 272.351 281.88C267.517 300.398 254.379 306.029 238.513 308.907C228.598 310.658 222.524 304.653 219.301 296.019C214.963 284.508 210.501 287.26 205.295 295.143C202.816 298.897 199.842 302.4 197.115 306.029C183.852 324.172 168.855 325.047 158.071 309.908C150.635 299.397 145.677 301.149 138.859 309.157C137.62 310.658 136.133 312.035 134.645 313.161C131.299 315.788 128.2 318.041 125.225 320.043C98.7005 337.81 84.6944 329.427 76.018 292.391C74.4067 285.384 72.7954 278.502 71.1841 271.495C70.3165 267.491 69.4488 262.862 64.1191 266.991C50.8567 277.251 51.3525 264.613 51.2285 258.107C50.8567 243.843 53.9554 229.955 70.3165 225.951C87.917 221.697 92.8749 234.959 96.4694 247.847C100.56 262.862 103.534 278.252 106.757 293.517C107.749 298.146 108.616 303.276 112.83 305.028C113.946 305.528 114.938 305.653 115.929 305.653C120.143 305.653 123.49 301.65 125.721 298.647C136.009 285.133 143.817 271.37 142.206 252.477C139.851 225.325 140.099 197.798 140.719 170.522C140.967 157.259 142.082 138.24 158.071 138.24C173.317 138.24 175.796 156.258 175.796 170.271C175.92 189.79 174.804 209.059 170.218 228.328C165.632 247.472 165.632 267.116 173.565 285.884C178.399 297.395 184.348 296.269 189.802 287.135C199.098 271.745 201.701 254.353 201.949 236.836C202.197 223.198 200.214 209.56 199.718 195.921C199.47 188.039 199.718 178.654 210.377 178.404C221.161 178.154 222.152 187.288 221.533 195.296C219.921 217.192 226.986 237.962 230.705 258.983C232.564 268.993 236.158 285.008 247.438 283.882C258.469 282.881 256.61 266.991 256.858 256.981C257.477 238.087 255.742 219.319 250.908 201.051C246.942 186.537 250.04 178.029 266.154 173.9C280.78 170.021 295.777 167.268 309.907 161.763C320.815 157.509 331.102 151.753 339.903 142.494C342.753 139.616 347.091 139.241 350.562 141.994C355.644 146.123 355.024 151.753 355.148 157.884C356.264 196.172 357.999 234.334 360.354 272.496C360.726 277.626 360.354 284.383 366.179 288.512C375.599 283.006 372.501 275.249 370.765 267.867C365.436 245.094 367.419 222.572 372.997 200.301C374.608 194.17 377.583 188.039 380.929 182.658C385.639 175.026 392.456 169.395 401.876 172.398C410.801 175.276 409.065 183.784 408.446 190.791C405.967 214.064 404.107 237.462 400.017 260.484C397.538 274.498 402.744 280.379 414.767 285.133C446.745 297.771 446.25 298.146 444.142 331.929C443.275 345.567 444.266 359.331 445.258 372.844C445.878 382.979 445.506 394.24 434.351 394.24Z"/>
</mask>
<path d="M0 51.2C0 22.923 22.923 0 51.2 0H460.8C489.077 0 512 22.923 512 51.2V460.8C512 489.077 489.077 512 460.8 512H51.2C22.923 512 0 489.077 0 460.8V51.2Z" fill="#AF67ED"/>
<path d="M434.351 394.24C422.7 394.24 416.998 383.104 418.857 371.593C421.212 356.703 423.815 342.064 423.567 327.049C423.319 308.782 407.702 295.769 390.225 299.773C389.234 300.023 388.118 300.523 387.251 301.149C387.127 301.274 386.879 301.399 386.631 301.524C386.259 301.9 385.887 302.15 385.515 302.525C385.267 302.776 384.896 303.026 384.648 303.401C378.946 309.157 373.244 319.667 373.244 319.667C345.852 329.802 343.745 327.3 340.026 291.39C336.308 255.229 336.804 218.568 337.3 182.158C337.547 165.767 332.218 164.015 319.327 169.395C317.468 170.146 315.609 170.897 313.75 171.648C302.594 176.277 291.315 180.907 279.664 184.41C268.137 187.913 266.897 193.919 269.252 204.805C274.706 230.205 279.168 255.605 272.351 281.88C267.517 300.398 254.379 306.029 238.513 308.907C228.598 310.658 222.524 304.653 219.301 296.019C214.963 284.508 210.501 287.26 205.295 295.143C202.816 298.897 199.842 302.4 197.115 306.029C183.852 324.172 168.855 325.047 158.071 309.908C150.635 299.397 145.677 301.149 138.859 309.157C137.62 310.658 136.133 312.035 134.645 313.161C131.299 315.788 128.2 318.041 125.225 320.043C98.7005 337.81 84.6944 329.427 76.018 292.391C74.4067 285.384 72.7954 278.502 71.1841 271.495C70.3165 267.491 69.4488 262.862 64.1191 266.991C50.8567 277.251 51.3525 264.613 51.2285 258.107C50.8567 243.843 53.9554 229.955 70.3165 225.951C87.917 221.697 92.8749 234.959 96.4694 247.847C100.56 262.862 103.534 278.252 106.757 293.517C107.749 298.146 108.616 303.276 112.83 305.028C113.946 305.528 114.938 305.653 115.929 305.653C120.143 305.653 123.49 301.65 125.721 298.647C136.009 285.133 143.817 271.37 142.206 252.477C139.851 225.325 140.099 197.798 140.719 170.522C140.967 157.259 142.082 138.24 158.071 138.24C173.317 138.24 175.796 156.258 175.796 170.271C175.92 189.79 174.804 209.059 170.218 228.328C165.632 247.472 165.632 267.116 173.565 285.884C178.399 297.395 184.348 296.269 189.802 287.135C199.098 271.745 201.701 254.353 201.949 236.836C202.197 223.198 200.214 209.56 199.718 195.921C199.47 188.039 199.718 178.654 210.377 178.404C221.161 178.154 222.152 187.288 221.533 195.296C219.921 217.192 226.986 237.962 230.705 258.983C232.564 268.993 236.158 285.008 247.438 283.882C258.469 282.881 256.61 266.991 256.858 256.981C257.477 238.087 255.742 219.319 250.908 201.051C246.942 186.537 250.04 178.029 266.154 173.9C280.78 170.021 295.777 167.268 309.907 161.763C320.815 157.509 331.102 151.753 339.903 142.494C342.753 139.616 347.091 139.241 350.562 141.994C355.644 146.123 355.024 151.753 355.148 157.884C356.264 196.172 357.999 234.334 360.354 272.496C360.726 277.626 360.354 284.383 366.179 288.512C375.599 283.006 372.501 275.249 370.765 267.867C365.436 245.094 367.419 222.572 372.997 200.301C374.608 194.17 377.583 188.039 380.929 182.658C385.639 175.026 392.456 169.395 401.876 172.398C410.801 175.276 409.065 183.784 408.446 190.791C405.967 214.064 404.107 237.462 400.017 260.484C397.538 274.498 402.744 280.379 414.767 285.133C446.745 297.771 446.25 298.146 444.142 331.929C443.275 345.567 444.266 359.331 445.258 372.844C445.878 382.979 445.506 394.24 434.351 394.24Z" fill="white"/>
<path d="M418.857 371.593L420.832 371.912L420.833 371.905L418.857 371.593ZM423.567 327.049L421.567 327.077L421.567 327.082L423.567 327.049ZM390.225 299.773L389.779 297.823L389.757 297.828L389.736 297.834L390.225 299.773ZM387.251 301.149L386.081 299.527L385.946 299.624L385.83 299.742L387.251 301.149ZM386.631 301.524L385.73 299.739L385.439 299.886L385.21 300.117L386.631 301.524ZM385.515 302.525L386.936 303.933L385.515 302.525ZM384.648 303.401L386.068 304.809L386.208 304.668L386.317 304.503L384.648 303.401ZM373.244 319.667L373.938 321.543L374.644 321.282L375.002 320.621L373.244 319.667ZM340.026 291.39L338.037 291.594L338.037 291.596L340.026 291.39ZM337.3 182.158L335.3 182.128L335.3 182.131L337.3 182.158ZM319.327 169.395L320.076 171.25L320.087 171.246L320.098 171.241L319.327 169.395ZM313.75 171.648L313.001 169.793L312.992 169.797L312.983 169.8L313.75 171.648ZM279.664 184.41L279.088 182.495L279.082 182.497L279.664 184.41ZM269.252 204.805L271.208 204.385L271.207 204.382L269.252 204.805ZM272.351 281.88L274.286 282.385L274.287 282.383L272.351 281.88ZM238.513 308.907L238.861 310.876L238.87 310.875L238.513 308.907ZM219.301 296.019L221.175 295.32L221.173 295.314L219.301 296.019ZM205.295 295.143L206.964 296.245L206.964 296.245L205.295 295.143ZM197.115 306.029L195.516 304.827L195.508 304.838L195.5 304.849L197.115 306.029ZM158.071 309.908L156.439 311.063L156.442 311.068L158.071 309.908ZM138.859 309.157L137.337 307.86L137.327 307.872L137.317 307.884L138.859 309.157ZM134.645 313.161L133.438 311.566L133.424 311.577L133.41 311.588L134.645 313.161ZM125.225 320.043L126.338 321.704L126.342 321.702L125.225 320.043ZM76.018 292.391L74.0689 292.839L74.0708 292.847L76.018 292.391ZM71.1841 271.495L69.2295 271.919L69.2321 271.931L69.235 271.943L71.1841 271.495ZM64.1191 266.991L65.3429 268.573L65.3439 268.572L64.1191 266.991ZM51.2285 258.107L53.2282 258.069L53.2278 258.055L51.2285 258.107ZM70.3165 225.951L69.8466 224.007L69.841 224.008L70.3165 225.951ZM96.4694 247.847L98.3991 247.321L98.3959 247.31L96.4694 247.847ZM106.757 293.517L104.8 293.93L104.801 293.936L106.757 293.517ZM112.83 305.028L113.649 303.203L113.624 303.192L113.598 303.181L112.83 305.028ZM125.721 298.647L124.13 297.435L124.123 297.444L124.116 297.454L125.721 298.647ZM142.206 252.477L144.199 252.307L144.199 252.304L142.206 252.477ZM140.719 170.522L142.718 170.567L142.718 170.559L140.719 170.522ZM175.796 170.271L173.796 170.271L173.796 170.284L175.796 170.271ZM170.218 228.328L172.163 228.794L172.164 228.791L170.218 228.328ZM173.565 285.884L175.409 285.11L175.407 285.106L173.565 285.884ZM189.802 287.135L188.09 286.101L188.085 286.11L189.802 287.135ZM201.949 236.836L199.949 236.8L199.949 236.808L201.949 236.836ZM199.718 195.921L197.719 195.984L197.719 195.994L199.718 195.921ZM210.377 178.404L210.331 176.405L210.33 176.405L210.377 178.404ZM221.533 195.296L219.538 195.141L219.538 195.149L221.533 195.296ZM230.705 258.983L228.735 259.331L228.737 259.34L228.738 259.348L230.705 258.983ZM247.438 283.882L247.257 281.89L247.248 281.891L247.239 281.892L247.438 283.882ZM256.858 256.981L254.859 256.915L254.858 256.923L254.858 256.931L256.858 256.981ZM250.908 201.051L252.842 200.54L252.84 200.532L252.837 200.524L250.908 201.051ZM266.154 173.9L266.65 175.837L266.658 175.835L266.666 175.833L266.154 173.9ZM309.907 161.763L310.633 163.627L310.634 163.626L309.907 161.763ZM339.903 142.494L338.482 141.087L338.467 141.101L338.453 141.116L339.903 142.494ZM350.562 141.994L351.823 140.441L351.814 140.434L351.805 140.427L350.562 141.994ZM355.148 157.884L353.149 157.925L353.149 157.934L353.149 157.942L355.148 157.884ZM360.354 272.496L358.358 272.619L358.358 272.63L358.359 272.641L360.354 272.496ZM366.179 288.512L365.023 290.143L366.075 290.889L367.189 290.238L366.179 288.512ZM370.765 267.867L368.818 268.322L368.819 268.324L370.765 267.867ZM372.997 200.301L371.062 199.792L371.059 199.803L371.056 199.815L372.997 200.301ZM380.929 182.658L382.627 183.715L382.631 183.709L380.929 182.658ZM401.876 172.398L402.49 170.495L402.484 170.493L401.876 172.398ZM408.446 190.791L410.434 191.003L410.436 190.985L410.438 190.968L408.446 190.791ZM400.017 260.484L398.048 260.135L398.048 260.136L400.017 260.484ZM414.767 285.133L414.031 286.993L414.032 286.993L414.767 285.133ZM444.142 331.929L446.138 332.056L446.139 332.054L444.142 331.929ZM445.258 372.844L447.254 372.722L447.254 372.71L447.253 372.698L445.258 372.844ZM51.2 2H460.8V-2H51.2V2ZM510 51.2V460.8H514V51.2H510ZM460.8 510H51.2V514H460.8V510ZM2 460.8V51.2H-2V460.8H2ZM51.2 510C24.0276 510 2 487.972 2 460.8H-2C-2 490.182 21.8185 514 51.2 514V510ZM510 460.8C510 487.972 487.972 510 460.8 510V514C490.182 514 514 490.182 514 460.8H510ZM460.8 2C487.972 2 510 24.0276 510 51.2H514C514 21.8185 490.182 -2 460.8 -2V2ZM51.2 -2C21.8185 -2 -2 21.8185 -2 51.2H2C2 24.0276 24.0276 2 51.2 2V-2ZM434.351 392.24C429.254 392.24 425.537 389.845 423.232 386.17C420.885 382.43 419.965 377.278 420.832 371.912L416.883 371.274C415.89 377.419 416.891 383.591 419.843 388.296C422.836 393.067 427.796 396.24 434.351 396.24V392.24ZM420.833 371.905C423.177 357.083 425.818 342.245 425.567 327.016L421.567 327.082C421.812 341.883 419.247 356.323 416.882 371.28L420.833 371.905ZM425.567 327.022C425.303 307.577 408.589 293.514 389.779 297.823L390.672 301.722C406.815 298.024 421.335 309.986 421.567 327.077L425.567 327.022ZM389.736 297.834C388.515 298.142 387.166 298.745 386.081 299.527L388.42 302.771C389.071 302.302 389.952 301.904 390.715 301.712L389.736 297.834ZM385.83 299.742C385.872 299.699 385.908 299.668 385.932 299.648C385.957 299.627 385.976 299.614 385.987 299.606C386.006 299.593 386.01 299.592 385.988 299.604C385.968 299.616 385.937 299.633 385.891 299.657C385.844 299.681 385.794 299.707 385.73 299.739L387.532 303.31C387.644 303.254 387.82 303.165 387.986 303.069C388.129 302.987 388.414 302.817 388.671 302.557L385.83 299.742ZM385.21 300.117C385.097 300.231 384.979 300.332 384.786 300.494C384.607 300.645 384.353 300.856 384.094 301.118L386.936 303.933C387.049 303.819 387.167 303.718 387.361 303.555C387.539 303.405 387.793 303.193 388.052 302.932L385.21 300.117ZM384.094 301.118C384.009 301.204 384.025 301.174 383.737 301.436C383.536 301.619 383.238 301.906 382.979 302.299L386.317 304.503C386.305 304.521 386.317 304.496 386.426 304.397C386.486 304.342 386.534 304.302 386.628 304.219C386.707 304.15 386.822 304.049 386.936 303.933L384.094 301.118ZM383.227 301.994C380.222 305.027 377.279 309.24 375.122 312.616C374.035 314.319 373.129 315.837 372.494 316.932C372.177 317.479 371.927 317.921 371.755 318.228C371.669 318.381 371.603 318.501 371.558 318.583C371.535 318.624 371.518 318.656 371.506 318.678C371.5 318.689 371.495 318.697 371.492 318.703C371.49 318.706 371.489 318.709 371.488 318.71C371.488 318.711 371.487 318.712 371.487 318.712C371.487 318.713 371.487 318.713 371.487 318.713C371.487 318.713 371.486 318.713 373.244 319.667C375.002 320.621 375.002 320.621 375.002 320.621C375.002 320.621 375.002 320.621 375.002 320.621C375.002 320.621 375.002 320.621 375.003 320.62C375.003 320.619 375.004 320.618 375.005 320.616C375.007 320.612 375.011 320.605 375.016 320.596C375.026 320.578 375.041 320.55 375.062 320.512C375.103 320.438 375.165 320.326 375.246 320.181C375.409 319.89 375.648 319.466 375.954 318.938C376.567 317.882 377.443 316.414 378.493 314.769C380.613 311.451 383.372 307.531 386.068 304.809L383.227 301.994ZM372.55 317.791C365.684 320.332 360.597 322.003 356.718 322.597C352.874 323.186 350.64 322.654 349.072 321.287C347.376 319.81 346.018 317.002 344.885 311.945C343.766 306.952 342.947 300.178 342.016 291.184L338.037 291.596C338.965 300.556 339.804 307.561 340.982 312.82C342.146 318.015 343.723 321.933 346.444 324.303C349.291 326.784 352.952 327.221 357.324 326.551C361.66 325.887 367.109 324.07 373.938 321.543L372.55 317.791ZM342.016 291.185C338.311 255.16 338.803 218.616 339.299 182.185L335.3 182.131C334.804 218.521 334.305 255.299 338.037 291.594L342.016 291.185ZM339.299 182.188C339.363 178.012 339.076 174.608 338.335 171.954C337.589 169.283 336.324 167.177 334.298 165.915C332.287 164.662 329.88 164.463 327.32 164.836C324.765 165.208 321.833 166.182 318.557 167.55L320.098 171.241C323.266 169.919 325.835 169.094 327.897 168.794C329.954 168.494 331.281 168.748 332.183 169.31C333.069 169.862 333.896 170.931 334.482 173.03C335.074 175.146 335.361 178.109 335.3 182.128L339.299 182.188ZM318.578 167.541C317.649 167.916 316.719 168.292 315.79 168.667C314.86 169.042 313.93 169.418 313.001 169.793L314.498 173.502C315.428 173.127 316.358 172.751 317.287 172.376C318.217 172.001 319.146 171.625 320.076 171.25L318.578 167.541ZM312.983 169.8C301.819 174.433 290.629 179.025 279.088 182.495L280.24 186.325C292.002 182.789 303.369 178.121 314.516 173.495L312.983 169.8ZM279.082 182.497C273.074 184.323 269.22 186.959 267.423 191.032C265.687 194.965 266.113 199.751 267.298 205.228L271.207 204.382C270.037 198.973 269.905 195.314 271.082 192.647C272.198 190.119 274.727 188.001 280.246 186.324L279.082 182.497ZM267.297 205.225C272.751 230.624 277.102 255.605 270.415 281.378L274.287 282.383C281.234 255.604 276.662 229.785 271.208 204.385L267.297 205.225ZM270.416 281.375C268.11 290.207 263.879 295.826 258.427 299.616C252.908 303.453 245.994 305.517 238.156 306.939L238.87 310.875C246.898 309.418 254.486 307.228 260.711 302.901C267.003 298.527 271.758 292.071 274.286 282.385L270.416 281.375ZM238.165 306.937C233.714 307.724 230.284 306.764 227.595 304.755C224.845 302.7 222.706 299.421 221.175 295.32L217.428 296.718C219.12 301.251 221.629 305.291 225.2 307.959C228.833 310.674 233.397 311.841 238.861 310.876L238.165 306.937ZM221.173 295.314C220.055 292.346 218.857 290.091 217.504 288.582C216.106 287.024 214.394 286.118 212.422 286.319C210.599 286.504 209.012 287.6 207.674 288.903C206.305 290.237 204.958 292.025 203.627 294.041L206.964 296.245C208.236 294.32 209.399 292.808 210.466 291.768C211.564 290.698 212.34 290.348 212.826 290.298C213.162 290.264 213.704 290.336 214.526 291.253C215.392 292.219 216.379 293.936 217.43 296.724L221.173 295.314ZM203.627 294.041C201.187 297.735 198.346 301.062 195.516 304.827L198.714 307.23C201.338 303.739 204.446 300.058 206.964 296.245L203.627 294.041ZM195.5 304.849C189.028 313.702 182.421 317.935 176.488 318.457C170.67 318.969 164.835 315.957 159.7 308.747L156.442 311.068C162.091 318.998 169.147 323.118 176.839 322.441C184.416 321.775 191.939 316.498 198.729 307.209L195.5 304.849ZM159.704 308.752C155.953 303.451 152.296 300.418 148.15 300.59C146.111 300.674 144.243 301.537 142.511 302.804C140.786 304.065 139.08 305.812 137.337 307.86L140.382 310.453C142.047 308.498 143.518 307.023 144.872 306.032C146.22 305.047 147.334 304.627 148.316 304.586C150.212 304.508 152.753 305.854 156.439 311.063L159.704 308.752ZM137.317 307.884C136.19 309.249 134.819 310.521 133.438 311.566L135.853 314.755C137.446 313.549 139.05 312.067 140.402 310.43L137.317 307.884ZM133.41 311.588C130.099 314.187 127.04 316.411 124.109 318.383L126.342 321.702C129.36 319.671 132.498 317.389 135.88 314.734L133.41 311.588ZM124.112 318.381C110.947 327.199 101.746 328.922 94.919 325.03C91.4223 323.037 88.2594 319.435 85.4146 313.918C82.5716 308.404 80.1152 301.111 77.9653 291.934L74.0708 292.847C76.2591 302.188 78.807 309.831 81.8594 315.751C84.9098 321.667 88.533 325.994 92.938 328.505C101.914 333.622 112.979 330.653 126.338 321.704L124.112 318.381ZM77.9672 291.942C77.161 288.437 76.3549 284.963 75.5493 281.491C74.7436 278.018 73.9384 274.548 73.1332 271.047L69.235 271.943C70.0411 275.449 70.8472 278.923 71.6528 282.395C72.4586 285.867 73.2638 289.338 74.0689 292.839L77.9672 291.942ZM73.1387 271.072C72.9294 270.105 72.6929 268.967 72.3754 267.934C72.0657 266.926 71.6105 265.775 70.8349 264.882C69.9683 263.884 68.7204 263.243 67.1513 263.399C65.7553 263.538 64.3407 264.289 62.8942 265.41L65.3439 268.572C66.5623 267.628 67.2549 267.409 67.5476 267.38C67.6673 267.368 67.6898 267.361 67.8149 267.504C68.0308 267.753 68.2883 268.252 68.5519 269.109C68.8077 269.941 69.005 270.883 69.2295 271.919L73.1387 271.072ZM62.8953 265.409C59.6593 267.912 57.5849 268.748 56.3561 268.853C55.7972 268.901 55.4604 268.795 55.2354 268.667C54.9955 268.53 54.7364 268.283 54.48 267.838C53.9312 266.885 53.5943 265.38 53.4216 263.5C53.2521 261.655 53.2604 259.759 53.2282 258.069L49.2289 258.145C49.2587 259.708 49.2514 261.832 49.4383 263.866C49.6219 265.864 50.0132 268.097 51.0138 269.834C51.5321 270.734 52.2529 271.571 53.2544 272.142C54.2709 272.721 55.4369 272.947 56.6985 272.839C59.1106 272.631 61.9476 271.199 65.3429 268.573L62.8953 265.409ZM53.2278 258.055C53.0449 251.036 53.732 244.378 56.2994 239.05C58.8114 233.836 63.1873 229.754 70.7919 227.893L69.841 224.008C61.0845 226.151 55.7306 231.015 52.6959 237.313C49.7166 243.496 49.0403 250.915 49.2292 258.159L53.2278 258.055ZM70.7863 227.895C74.9365 226.892 78.1876 226.957 80.7788 227.69C83.3549 228.417 85.4193 229.843 87.1474 231.796C90.6904 235.8 92.7341 241.899 94.5429 248.384L98.3959 247.31C96.6103 240.908 94.3777 233.931 90.143 229.145C87.9822 226.703 85.2825 224.805 81.8664 223.84C78.4655 222.879 74.4967 222.883 69.8466 224.007L70.7863 227.895ZM94.5397 248.373C98.6101 263.314 101.568 278.618 104.8 293.93L108.714 293.104C105.501 277.885 102.509 262.409 98.3991 247.321L94.5397 248.373ZM104.801 293.936C105.278 296.159 105.783 298.827 106.739 301.121C107.72 303.473 109.288 305.721 112.063 306.875L113.598 303.181C112.159 302.583 111.186 301.39 110.431 299.582C109.653 297.715 109.228 295.503 108.713 293.098L104.801 293.936ZM112.012 306.853C113.453 307.499 114.741 307.653 115.929 307.653V303.653C115.134 303.653 114.439 303.558 113.649 303.203L112.012 306.853ZM115.929 307.653C118.692 307.653 121.026 306.341 122.853 304.809C124.685 303.274 126.194 301.364 127.326 299.839L124.116 297.454C123.017 298.932 121.738 300.525 120.284 301.743C118.827 302.964 117.38 303.653 115.929 303.653V307.653ZM127.312 299.858C137.7 286.213 145.874 271.947 144.199 252.307L140.213 252.647C141.761 270.793 134.317 284.054 124.13 297.435L127.312 299.858ZM144.199 252.304C141.854 225.269 142.099 197.836 142.718 170.567L138.719 170.476C138.099 197.76 137.848 225.381 140.214 252.649L144.199 252.304ZM142.718 170.559C142.843 163.894 143.193 156.143 145.374 150.085C146.454 147.084 147.937 144.638 149.94 142.947C151.906 141.287 154.505 140.24 158.071 140.24V136.24C153.643 136.24 150.107 137.57 147.359 139.891C144.648 142.18 142.838 145.318 141.61 148.73C139.174 155.496 138.842 163.886 138.719 170.484L142.718 170.559ZM158.071 140.24C161.456 140.24 164.021 141.228 166.02 142.834C168.051 144.464 169.618 146.83 170.796 149.749C173.171 155.633 173.796 163.319 173.796 170.271H177.796C177.796 163.21 177.181 154.88 174.505 148.252C173.158 144.915 171.246 141.9 168.525 139.715C165.772 137.504 162.309 136.24 158.071 136.24V140.24ZM173.796 170.284C173.919 189.725 172.806 208.815 168.273 227.865L172.164 228.791C176.802 209.303 177.92 189.856 177.796 170.259L173.796 170.284ZM168.273 227.862C163.615 247.308 163.584 267.406 171.723 286.663L175.407 285.106C167.681 266.825 167.65 247.635 172.163 228.794L168.273 227.862ZM171.721 286.659C172.979 289.656 174.374 291.992 175.935 293.609C177.517 295.249 179.369 296.24 181.44 296.252C183.475 296.263 185.332 295.325 186.952 293.925C188.572 292.525 190.094 290.547 191.519 288.161L188.085 286.11C186.783 288.291 185.516 289.879 184.336 290.899C183.155 291.92 182.201 292.256 181.462 292.252C180.76 292.248 179.877 291.933 178.813 290.832C177.729 289.708 176.567 287.868 175.409 285.11L171.721 286.659ZM191.514 288.169C201.074 272.342 203.699 254.538 203.949 236.865L199.949 236.808C199.703 254.169 197.122 271.149 188.09 286.101L191.514 288.169ZM203.949 236.873C204.074 229.953 203.634 223.054 203.106 216.225C202.577 209.369 201.962 202.614 201.716 195.849L197.719 195.994C197.969 202.867 198.594 209.751 199.118 216.533C199.644 223.342 200.071 230.082 199.949 236.8L203.949 236.873ZM201.717 195.858C201.591 191.862 201.63 187.965 202.811 185.052C203.377 183.654 204.18 182.561 205.309 181.789C206.441 181.016 208.056 180.459 210.424 180.404L210.33 176.405C207.369 176.474 204.956 177.185 203.051 178.487C201.143 179.792 199.9 181.584 199.104 183.549C197.558 187.362 197.597 192.098 197.719 195.984L201.717 195.858ZM210.424 180.404C212.837 180.348 214.531 180.819 215.738 181.533C216.936 182.242 217.801 183.275 218.419 184.599C219.703 187.351 219.845 191.185 219.538 195.141L223.527 195.45C223.84 191.399 223.796 186.662 222.043 182.907C221.143 180.978 219.777 179.274 217.775 178.09C215.783 176.912 213.31 176.336 210.331 176.405L210.424 180.404ZM219.538 195.149C218.714 206.351 220.112 217.216 222.156 227.845C223.177 233.158 224.366 238.441 225.523 243.675C226.684 248.92 227.814 254.123 228.735 259.331L232.674 258.635C231.736 253.333 230.589 248.056 229.429 242.811C228.266 237.554 227.092 232.335 226.084 227.09C224.068 216.605 222.74 206.136 223.527 195.442L219.538 195.149ZM228.738 259.348C229.666 264.34 231.067 271.104 233.748 276.498C236.42 281.877 240.74 286.561 247.636 285.872L247.239 281.892C242.856 282.33 239.739 279.569 237.33 274.719C234.928 269.885 233.603 263.636 232.671 258.618L228.738 259.348ZM247.618 285.874C250.926 285.574 253.388 284.117 255.111 281.887C256.775 279.734 257.663 276.978 258.161 274.158C259.14 268.615 258.74 261.76 258.857 257.03L254.858 256.931C254.727 262.212 255.133 268.307 254.222 273.462C253.775 275.99 253.044 278.02 251.946 279.441C250.907 280.785 249.464 281.69 247.257 281.89L247.618 285.874ZM258.857 257.046C259.482 237.988 257.732 219.022 252.842 200.54L248.975 201.563C253.752 219.616 255.473 238.187 254.859 256.915L258.857 257.046ZM252.837 200.524C250.892 193.405 250.838 188.27 252.78 184.496C254.691 180.781 258.828 177.842 266.65 175.837L265.657 171.962C257.366 174.087 251.897 177.467 249.223 182.666C246.578 187.808 246.958 194.183 248.979 201.579L252.837 200.524ZM266.666 175.833C281.088 172.008 296.366 169.185 310.633 163.627L309.181 159.899C295.188 165.351 280.471 168.034 265.641 171.967L266.666 175.833ZM310.634 163.626C321.718 159.303 332.288 153.409 341.352 143.872L338.453 141.116C329.916 150.098 319.912 155.714 309.18 159.9L310.634 163.626ZM341.323 143.902C343.453 141.752 346.643 141.438 349.319 143.561L351.805 140.427C347.54 137.044 342.054 137.481 338.482 141.087L341.323 143.902ZM349.301 143.546C351.399 145.251 352.319 147.226 352.747 149.551C353.204 152.029 353.083 154.676 353.149 157.925L357.148 157.844C357.089 154.961 357.216 151.728 356.681 148.826C356.118 145.77 354.807 142.866 351.823 140.441L349.301 143.546ZM353.149 157.942C354.265 196.252 356.001 234.435 358.358 272.619L362.35 272.373C359.996 234.232 358.262 196.092 357.147 157.826L353.149 157.942ZM358.359 272.641C358.531 275.009 358.544 278.287 359.277 281.345C360.038 284.526 361.613 287.727 365.023 290.143L367.336 286.88C364.92 285.168 363.768 282.925 363.167 280.413C362.535 277.778 362.549 275.113 362.349 272.352L358.359 272.641ZM367.189 290.238C369.764 288.733 371.6 287.005 372.812 285.059C374.028 283.106 374.546 281.048 374.653 278.998C374.858 275.073 373.522 270.852 372.712 267.409L368.819 268.324C369.744 272.263 370.825 275.612 370.658 278.788C370.58 280.289 370.214 281.663 369.416 282.944C368.615 284.232 367.305 285.537 365.17 286.785L367.189 290.238ZM372.713 267.411C367.478 245.044 369.408 222.862 374.937 200.786L371.056 199.815C365.43 222.283 363.393 245.144 368.818 268.322L372.713 267.411ZM374.931 200.809C376.477 194.928 379.351 188.983 382.627 183.715L379.231 181.602C375.815 187.094 372.739 193.411 371.062 199.792L374.931 200.809ZM382.631 183.709C384.893 180.043 387.56 177.033 390.63 175.276C393.625 173.562 397.105 172.976 401.269 174.304L402.484 170.493C397.228 168.817 392.589 169.546 388.643 171.804C384.772 174.02 381.675 177.641 379.227 181.608L382.631 183.709ZM401.263 174.302C403.189 174.923 404.409 175.801 405.212 176.774C406.022 177.756 406.513 178.962 406.771 180.4C407.314 183.419 406.782 186.897 406.453 190.615L410.438 190.968C410.729 187.679 411.374 183.399 410.708 179.693C410.363 177.768 409.653 175.87 408.297 174.228C406.935 172.577 405.025 171.312 402.49 170.495L401.263 174.302ZM406.457 190.579C403.97 213.924 402.122 237.203 398.048 260.135L401.986 260.834C406.093 237.721 407.963 214.204 410.434 191.003L406.457 190.579ZM398.048 260.136C396.761 267.407 397.399 272.967 400.28 277.375C403.121 281.722 407.91 284.573 414.031 286.993L415.502 283.274C409.601 280.94 405.776 278.472 403.628 275.187C401.52 271.962 400.794 267.575 401.987 260.833L398.048 260.136ZM414.032 286.993C422.06 290.166 427.909 292.516 432.208 294.793C436.486 297.059 438.996 299.138 440.531 301.646C442.07 304.16 442.787 307.361 442.939 312.205C443.093 317.07 442.676 323.31 442.146 331.805L446.139 332.054C446.662 323.657 447.098 317.181 446.937 312.079C446.776 306.957 446.013 302.939 443.942 299.557C441.868 296.169 438.638 293.673 434.08 291.259C429.544 288.855 423.463 286.419 415.502 283.273L414.032 286.993ZM442.147 331.802C441.269 345.599 442.273 359.498 443.263 372.99L447.253 372.698C446.26 359.164 445.281 345.536 446.138 332.056L442.147 331.802ZM443.262 372.966C443.573 378.057 443.593 383.03 442.33 386.69C441.714 388.472 440.832 389.82 439.636 390.731C438.455 391.631 436.79 392.24 434.351 392.24V396.24C437.489 396.24 440.054 395.441 442.06 393.913C444.052 392.396 445.316 390.295 446.11 387.996C447.666 383.491 447.563 377.766 447.254 372.722L443.262 372.966Z" fill="#AF67ED" mask="url(#path-1-inside-1_1401_530)"/>
</svg>
