<svg width="10" height="30" viewBox="0 0 10 30" fill="none" xmlns="http://www.w3.org/2000/svg">
<path fill-rule="evenodd" clip-rule="evenodd" d="M0.69404 29.8778C0.990294 30.0148 1.33338 30.0376 1.64784 29.9411C1.96229 29.8446 2.22235 29.6368 2.37082 29.3633L9.8676 15.5208C9.95467 15.3604 10 15.1834 10 15.004C10 14.8246 9.95467 14.6476 9.8676 14.4872L2.37082 0.644745C2.29809 0.508116 2.19678 0.386131 2.07275 0.285822C1.94871 0.185511 1.80439 0.10886 1.64811 0.0602895C1.49183 0.011717 1.32669 -0.00781429 1.16219 0.00281916C0.997698 0.0134545 0.837111 0.0540429 0.68969 0.122248C0.542268 0.190451 0.410927 0.28492 0.30324 0.400209C0.195552 0.515499 0.113649 0.64933 0.0622506 0.793982C0.0108522 0.938635 -0.00902393 1.09125 0.0037678 1.24303C0.0165595 1.39481 0.0617661 1.54275 0.136782 1.67832L7.35118 15.004L0.136779 28.3297C-0.011668 28.6032 -0.0363544 28.92 0.0681512 29.2103C0.172657 29.5006 0.397795 29.7407 0.69404 29.8778Z" fill="currentColor"/>
</svg>
