<svg width="10" height="30" viewBox="0 0 10 30" fill="none" xmlns="http://www.w3.org/2000/svg">
<path fill-rule="evenodd" clip-rule="evenodd" d="M9.30596 0.12223C9.00971 -0.0148209 8.66662 -0.0376115 8.35216 0.0588711C8.03771 0.155354 7.77765 0.363207 7.62918 0.636709L0.132401 14.4792C0.0453348 14.6396 0 14.8166 0 14.996C0 15.1754 0.0453348 15.3524 0.132401 15.5128L7.62918 29.3553C7.70191 29.4919 7.80322 29.6139 7.92726 29.7142C8.0513 29.8145 8.19562 29.8911 8.35189 29.9397C8.50817 29.9883 8.67332 30.0078 8.83781 29.9972C9.0023 29.9865 9.16289 29.946 9.31031 29.8778C9.45773 29.8095 9.58908 29.7151 9.69676 29.5998C9.80445 29.4845 9.88635 29.3507 9.93775 29.206C9.98915 29.0614 10.009 28.9087 9.99623 28.757C9.98344 28.6052 9.93824 28.4573 9.86322 28.3217L2.64882 14.996L9.86322 1.67028C10.0117 1.39677 10.0364 1.08002 9.93185 0.789708C9.82734 0.499395 9.60221 0.259297 9.30596 0.12223Z" fill="currentColor"/>
</svg>
